<svg width="21" height="16" viewBox="0 0 21 16" fill="none" xmlns="http://www.w3.org/2000/svg">
<g clip-path="url(#clip0_395_8701)">
<path d="M17.038 2.65753C16.5182 2.65692 16.0034 2.75865 15.5229 2.95694C15.0425 3.15522 14.6058 3.44617 14.2378 3.81316C13.8699 4.18016 13.5778 4.61601 13.3784 5.09584C13.1789 5.57567 13.076 6.09007 13.0754 6.60967C13.0754 6.69301 13.078 6.7755 13.0827 6.85756C13.1294 7.62941 13.401 8.37073 13.8641 8.99009C14.3272 9.60946 14.9615 10.0798 15.6888 10.3431C16.4162 10.6064 17.2047 10.6511 17.9571 10.4717C18.7095 10.2924 19.393 9.89679 19.9232 9.33376C20.4535 8.77074 20.8072 8.06489 20.9409 7.30327C21.0746 6.54165 20.9824 5.75756 20.6756 5.04771C20.3688 4.33786 19.8609 3.7333 19.2145 3.30857C18.5681 2.88384 17.8115 2.65752 17.038 2.65753ZM16.6429 6.22586V4.6445H17.4326V6.22586H19.0145V7.01527H17.436V8.59663H16.6463V7.01484H15.0644V6.22586H16.6429Z" fill="#02B9B1"/>
<path d="M15.9724 16H0C0.00724549 15.9447 0.0181107 15.8899 0.0325047 15.8359C0.528463 14.3434 1.02727 12.8515 1.52893 11.3602C1.55416 11.285 1.62511 11.1871 1.69267 11.17C2.77608 10.8909 3.86207 10.6238 4.96301 10.3499L6.93916 13.5087C6.99944 13.3314 7.04903 13.1852 7.09819 13.0386C7.30727 12.4142 7.51334 11.7889 7.72712 11.1666C7.76987 11.0435 7.7609 10.9589 7.65572 10.8726C7.4971 10.7443 7.35045 10.5986 7.19867 10.4605L7.23201 10.4097H8.73742C8.75153 10.4272 8.76564 10.4443 8.78017 10.4618C8.61899 10.6071 8.44969 10.7448 8.30133 10.902C8.27527 10.9338 8.25657 10.9709 8.24659 11.0108C8.23661 11.0506 8.2356 11.0921 8.2436 11.1324C8.49543 11.9141 8.75666 12.6924 9.02944 13.5045C9.08502 13.422 9.12821 13.3621 9.16712 13.2993C9.74987 12.3663 10.3343 11.4346 10.9111 10.4977C10.9829 10.3811 11.0445 10.3511 11.18 10.3858C12.2027 10.6486 13.2284 10.8986 14.2507 11.1628C14.291 11.177 14.3278 11.1996 14.3588 11.229C14.3897 11.2585 14.4141 11.2942 14.4303 11.3337C14.9345 12.831 15.4343 14.3291 15.9297 15.8278C15.9481 15.8791 15.9558 15.9334 15.9724 16Z" fill="#02B9B1"/>
<path d="M7.99044 0C9.27608 0.0123945 10.5468 0.120526 11.7807 0.49578C12.2779 0.647078 12.7615 0.831285 13.1728 1.16337C13.7145 1.60103 13.7406 2.12587 13.1856 2.54728C12.8641 2.79132 12.4673 2.93578 12.1095 3.13495C12.0204 3.19246 11.9402 3.26257 11.8713 3.34309C11.6575 3.56491 11.475 3.83075 11.23 4.00684C10.6596 4.415 9.99009 4.59323 9.30601 4.69879C8.08321 4.8877 6.86897 4.84368 5.68423 4.45817C5.2011 4.30089 4.74362 4.08804 4.37935 3.72348C4.28015 3.62475 4.17669 3.51234 4.12709 3.38541C4.06125 3.21701 3.93426 3.16829 3.79188 3.09948C3.45454 2.93749 3.10011 2.79047 2.80382 2.56908C2.21722 2.13057 2.23433 1.59376 2.81067 1.14585C3.30278 0.761192 3.88339 0.56972 4.47383 0.412438C5.62565 0.10514 6.80484 0.00512875 7.99044 0ZM7.98188 3.18325C8.08673 3.18438 8.19077 3.16465 8.28793 3.1252C8.38508 3.08576 8.47343 3.02738 8.5478 2.95348C8.62216 2.87958 8.68108 2.79162 8.72111 2.69473C8.76115 2.59785 8.78148 2.49397 8.78097 2.38915C8.7797 2.28441 8.75782 2.18096 8.71656 2.08468C8.6753 1.9884 8.61547 1.90119 8.54049 1.82803C8.46551 1.75487 8.37687 1.69718 8.2796 1.65827C8.18232 1.61936 8.07832 1.59998 7.97355 1.60124C7.86878 1.6025 7.76527 1.62438 7.66896 1.66563C7.57265 1.70687 7.48541 1.76668 7.41222 1.84163C7.33903 1.91658 7.28134 2.0052 7.24241 2.10245C7.20348 2.19969 7.18409 2.30365 7.18535 2.40838C7.1894 2.61633 7.2753 2.8143 7.42441 2.95936C7.57352 3.10442 7.77382 3.18486 7.98188 3.18325Z" fill="#02B9B1"/>
<path d="M4.78247 5.59888H11.1615C11.3411 7.24991 10.8229 8.58509 9.33375 9.29842C7.22508 10.3088 4.78247 8.7428 4.78247 6.40153V5.59888Z" fill="#02B9B1"/>
</g>
<defs>
<clipPath id="clip0_395_8701">
<rect width="21" height="16" fill="white"/>
</clipPath>
</defs>
</svg>
