<svg width="13" height="13" viewBox="0 0 13 13" fill="none" xmlns="http://www.w3.org/2000/svg">
<path d="M6.49999 1.75004V4.08337H3.18607L1.93541 7.00004H12.3333V12.25C12.3333 12.4047 12.2719 12.5531 12.1625 12.6625C12.0531 12.7719 11.9047 12.8334 11.75 12.8334H11.1667C11.0119 12.8334 10.8636 12.7719 10.7542 12.6625C10.6448 12.5531 10.5833 12.4047 10.5833 12.25V11.6667H2.41666V12.25C2.41666 12.4047 2.3552 12.5531 2.2458 12.6625C2.13641 12.7719 1.98803 12.8334 1.83332 12.8334H1.24999C1.09528 12.8334 0.946907 12.7719 0.837511 12.6625C0.728115 12.5531 0.666656 12.4047 0.666656 12.25V7.00004L2.11332 3.62371C2.20334 3.41371 2.35305 3.23476 2.54386 3.10908C2.73466 2.98339 2.95817 2.9165 3.18666 2.91671H4.74999V1.75004H6.49999ZM3.29166 8.16671C3.05959 8.16671 2.83703 8.25889 2.67294 8.42299C2.50884 8.58708 2.41666 8.80964 2.41666 9.04171C2.41666 9.27377 2.50884 9.49633 2.67294 9.66043C2.83703 9.82452 3.05959 9.91671 3.29166 9.91671C3.52372 9.91671 3.74628 9.82452 3.91037 9.66043C4.07447 9.49633 4.16666 9.27377 4.16666 9.04171C4.16666 8.80964 4.07447 8.58708 3.91037 8.42299C3.74628 8.25889 3.52372 8.16671 3.29166 8.16671ZM9.70832 8.16671C9.47626 8.16671 9.2537 8.25889 9.08961 8.42299C8.92551 8.58708 8.83332 8.80964 8.83332 9.04171C8.83332 9.27377 8.92551 9.49633 9.08961 9.66043C9.2537 9.82452 9.47626 9.91671 9.70832 9.91671C9.94039 9.91671 10.1629 9.82452 10.327 9.66043C10.4911 9.49633 10.5833 9.27377 10.5833 9.04171C10.5833 8.80964 10.4911 8.58708 10.327 8.42299C10.1629 8.25889 9.94039 8.16671 9.70832 8.16671ZM10.2917 0.583374C10.9878 0.583374 11.6555 0.859936 12.1478 1.35222C12.6401 1.8445 12.9167 2.51218 12.9167 3.20837C12.9167 3.90457 12.6401 4.57225 12.1478 5.06453C11.6555 5.55681 10.9878 5.83337 10.2917 5.83337C9.59546 5.83337 8.92778 5.55681 8.4355 5.06453C7.94322 4.57225 7.66666 3.90457 7.66666 3.20837C7.66666 2.51218 7.94322 1.8445 8.4355 1.35222C8.92778 0.859936 9.59546 0.583374 10.2917 0.583374ZM10.2917 3.59746C10.0052 3.59746 9.74332 3.70071 9.53974 3.87162L9.46682 3.93871L10.2917 4.76412L11.1159 3.93812C11.0077 3.82991 10.8792 3.74411 10.7377 3.68565C10.5963 3.62719 10.4447 3.59722 10.2917 3.59746ZM10.2917 2.04171C9.61735 2.04069 8.96684 2.29087 8.46699 2.74346L8.36607 2.83971L8.91674 3.38921C9.09706 3.20831 9.31136 3.06484 9.54732 2.96703C9.78327 2.86922 10.0362 2.81902 10.2917 2.81929C10.7644 2.81858 11.221 2.99078 11.5756 3.30346L11.6666 3.38921L12.2167 2.83912C11.9642 2.58593 11.6641 2.38514 11.3337 2.2483C11.0034 2.11145 10.6492 2.04124 10.2917 2.04171Z" fill="#02B9B1"/>
</svg>