<svg width="15" height="17" viewBox="0 0 15 17" fill="none" xmlns="http://www.w3.org/2000/svg">
<path d="M8 10.689V16.5H0.5C0.499767 15.5842 0.709191 14.6804 1.11222 13.858C1.51526 13.0357 2.1012 12.3165 2.82516 11.7555C3.54912 11.1946 4.39188 10.8068 5.28887 10.622C6.18585 10.4371 7.11325 10.46 8 10.689ZM6.5 9.75C4.01375 9.75 2 7.73625 2 5.25C2 2.76375 4.01375 0.75 6.5 0.75C8.98625 0.75 11 2.76375 11 5.25C11 7.73625 8.98625 9.75 6.5 9.75ZM11 12.75V10.5H12.5V12.75H14.75V14.25H12.5V16.5H11V14.25H8.75V12.75H11Z" fill="#02B9B1"/>
</svg>
