<svg width="10" height="12" viewBox="0 0 10 12" fill="none" xmlns="http://www.w3.org/2000/svg">
<path d="M3.25001 1.33329V0.749959C3.25001 0.59525 3.31146 0.446877 3.42086 0.33748C3.53026 0.228084 3.67863 0.166626 3.83334 0.166626H6.16667C6.32138 0.166626 6.46975 0.228084 6.57915 0.33748C6.68855 0.446877 6.75001 0.59525 6.75001 0.749959V1.33329H8.50001C8.65472 1.33329 8.80309 1.39475 8.91249 1.50415C9.02188 1.61354 9.08334 1.76192 9.08334 1.91663V11.25C9.08334 11.4047 9.02188 11.553 8.91249 11.6624C8.80309 11.7718 8.65472 11.8333 8.50001 11.8333H1.50001C1.3453 11.8333 1.19692 11.7718 1.08753 11.6624C0.97813 11.553 0.916672 11.4047 0.916672 11.25V1.91663C0.916672 1.76192 0.97813 1.61354 1.08753 1.50415C1.19692 1.39475 1.3453 1.33329 1.50001 1.33329H3.25001ZM5.58334 5.99996V3.08329L2.66667 7.16663H4.41667V10.0833L7.33334 5.99996H5.58334Z" fill="white"/>
</svg>