<svg width="13" height="13" viewBox="0 0 13 13" fill="none" xmlns="http://www.w3.org/2000/svg">
<g clip-path="url(#clip0_53_5540)">
<path d="M12.9802 2.58217C12.9702 2.50394 12.955 2.42614 12.9487 2.34747C12.9448 2.29827 12.9211 2.28942 12.8809 2.28013C12.6092 2.22433 12.3659 2.0674 12.1955 1.83817C12.0472 1.64218 11.9594 1.40317 11.9441 1.15325C11.9338 1.00526 11.951 0.856571 11.9948 0.715507C12.0034 0.687785 12.0122 0.659917 12.0216 0.629583C12.0175 0.623258 12.0129 0.617332 12.0078 0.611876C11.8884 0.501122 11.7605 0.400787 11.6256 0.31187C11.4306 0.18405 11.2223 0.0802204 11.0048 0.00242862C10.9992 -0.000361767 10.9928 -0.000883037 10.9869 0.000965161C10.9809 0.00281336 10.9758 0.00690093 10.9726 0.0124434C10.9065 0.0975048 10.8295 0.172531 10.7438 0.23538C10.5117 0.402437 10.2562 0.478346 9.97465 0.454543C9.84198 0.44349 9.71211 0.408482 9.59076 0.351057C9.42844 0.275408 9.28509 0.161121 9.17206 0.0172324C9.16766 0.0100221 9.16089 0.00477345 9.15303 0.00249595C9.14518 0.000218442 9.1368 0.00107334 9.12951 0.00489577C8.76295 0.136573 8.42452 0.342495 8.13338 0.611005C8.11887 0.624358 8.11956 0.635679 8.12592 0.652225C8.17279 0.782076 8.19698 0.919745 8.19734 1.05862C8.19776 1.13378 8.1918 1.20882 8.17952 1.28286C8.12813 1.59869 7.9788 1.85414 7.7394 2.05124C7.59246 2.1704 7.42061 2.25105 7.23809 2.28651C7.19996 2.2945 7.19665 2.29943 7.19043 2.34283C7.17993 2.42208 7.16819 2.50118 7.15866 2.58043C7.15037 2.63725 7.14516 2.69453 7.14305 2.75198C7.14125 2.93225 7.13504 3.11295 7.16142 3.29205C7.17348 3.37343 7.18642 3.45461 7.20024 3.5356C7.2018 3.53976 7.20427 3.54348 7.20743 3.54648C7.21059 3.54948 7.21437 3.55166 7.21847 3.55287C7.23975 3.55911 7.26199 3.56187 7.28367 3.56739C7.47923 3.6138 7.66019 3.71212 7.80928 3.85294C7.95838 3.99376 8.07063 4.17238 8.13531 4.37176C8.18121 4.50815 8.2012 4.65268 8.19416 4.79717C8.19195 4.84216 8.19292 4.88759 8.18698 4.932C8.17634 5.02243 8.15533 5.11118 8.1244 5.1963C8.12143 5.20216 8.12071 5.20898 8.12238 5.21538C8.12405 5.22177 8.12799 5.22726 8.13338 5.2307C8.1914 5.2802 8.24748 5.3323 8.30716 5.37976C8.4809 5.51874 8.66967 5.63566 8.86953 5.7281C8.95697 5.76845 9.04704 5.80212 9.13586 5.83928C9.1386 5.8409 9.14162 5.84193 9.14474 5.8423C9.14787 5.84268 9.15103 5.84239 9.15404 5.84145C9.15706 5.84052 9.15986 5.83896 9.16229 5.83687C9.16472 5.83477 9.16673 5.83219 9.16819 5.82926C9.17908 5.81393 9.19094 5.79939 9.20369 5.78572C9.4127 5.54929 9.67047 5.41721 9.9759 5.38702C10.0797 5.3775 10.1843 5.38346 10.2866 5.40473C10.562 5.45973 10.7898 5.60212 10.9709 5.8268C10.982 5.84044 10.9905 5.84508 11.0068 5.83812C11.1121 5.79298 11.2199 5.75292 11.3229 5.70299C11.5671 5.58287 11.7941 5.42736 11.9972 5.24101C12.0063 5.23469 12.0129 5.22501 12.0156 5.21387C12.0183 5.20273 12.017 5.19093 12.0118 5.18077C11.9731 5.07463 11.9502 4.96288 11.9437 4.84942C11.9385 4.76098 11.9425 4.67222 11.9555 4.58468C12.0017 4.28641 12.1313 4.03735 12.3472 3.83807C12.5079 3.68958 12.7049 3.59134 12.9159 3.55447C12.9347 3.55113 12.9412 3.54373 12.9436 3.52544C12.9538 3.45127 12.9675 3.37739 12.9752 3.30294C12.9854 3.20526 12.995 3.10714 12.9981 3.00903C13.0035 2.86646 12.9975 2.72367 12.9802 2.58217ZM10.0944 3.84112C9.59587 3.85099 9.19734 3.42645 9.19775 2.92673C9.19624 2.74474 9.24598 2.56634 9.34073 2.41398C9.43548 2.26162 9.571 2.14211 9.73024 2.07048C9.88948 1.99884 10.0653 1.97829 10.2357 2.0114C10.406 2.04452 10.5632 2.12982 10.6875 2.25658C10.8118 2.38333 10.8976 2.54588 10.9342 2.72378C10.9708 2.90167 10.9565 3.08696 10.8931 3.25633C10.8297 3.4257 10.7201 3.5716 10.578 3.67565C10.4358 3.77971 10.2676 3.83728 10.0944 3.84112Z" fill="#14183F"/>
<path d="M4.19602 2.2815C4.19671 2.26583 4.19809 2.25015 4.19809 2.23448V1.11022C4.19809 1.02429 4.19809 1.02429 4.27877 1.02429H5.94944C6.00014 1.02429 6.00014 1.02429 6.00014 1.07741C6.00014 1.12705 6.00014 1.17655 6.00014 1.22618C6.00115 1.98034 6.00216 2.73459 6.00318 3.48893C6.00318 3.54452 6.00318 3.54452 5.95165 3.54452C4.84818 3.54452 3.74476 3.54423 2.64139 3.54365C2.60561 3.54365 2.58903 3.55526 2.57522 3.58923C2.36248 4.11348 2.14905 4.63734 1.93493 5.16082L1.32615 6.65229C1.32173 6.66317 1.31841 6.67449 1.31234 6.6922H11.9353C12.0069 6.6922 11.9985 6.68349 11.9985 6.75708C11.9985 8.61875 11.9985 10.4804 11.9985 12.3421C11.9985 12.5399 11.9359 12.7058 11.7962 12.8382C11.6984 12.9308 11.5832 12.989 11.4509 12.9929C11.2326 12.9996 11.014 13.0008 10.7956 12.9987C10.6417 12.9998 10.4937 12.9373 10.3835 12.8246C10.2774 12.7172 10.208 12.5858 10.2024 12.4293C10.1946 12.2158 10.1973 12.0018 10.1956 11.788C10.1956 11.7393 10.1956 11.7393 10.1482 11.7393H1.85468C1.80522 11.7393 1.80522 11.7393 1.80522 11.7932C1.80522 11.9758 1.80522 12.1584 1.80522 12.3408C1.80522 12.4923 1.76917 12.6324 1.67813 12.7527C1.569 12.8968 1.4281 12.9868 1.25169 12.9936C1.03343 13.0021 0.814754 13.0018 0.596215 12.9993C0.442328 12.9993 0.294693 12.9353 0.185524 12.8214C0.079846 12.7132 0.0160251 12.581 0.00594079 12.4247C0.000138883 12.3321 0 12.2389 0 12.1459C0 10.3461 0 8.54613 0 6.7459C0.000244148 6.71596 0.00611222 6.68637 0.0172676 6.65882C0.318506 5.91734 0.620481 5.17601 0.923193 4.43482C1.11231 3.97037 1.29617 3.50461 1.49192 3.0435C1.66542 2.6342 1.96809 2.38688 2.38845 2.30328C2.44233 2.29254 2.49786 2.28992 2.55256 2.28354C2.56479 2.28604 2.57715 2.28769 2.58958 2.28847C3.11148 2.28847 3.63342 2.28847 4.15541 2.28847C4.1691 2.28726 4.18268 2.28493 4.19602 2.2815ZM10.1951 8.89776C10.2097 8.43752 9.83105 7.92329 9.23663 7.9603C9.0027 7.97643 8.78405 8.08805 8.62741 8.27131C8.47076 8.45457 8.38854 8.69493 8.39832 8.94103C8.4081 9.18713 8.5091 9.41946 8.67973 9.58836C8.85037 9.75727 9.07711 9.84936 9.31151 9.84495C9.81075 9.83741 10.2027 9.40793 10.1951 8.89776ZM3.59539 8.90096C3.61334 8.40748 3.21799 7.98541 2.75964 7.95914C2.21688 7.92807 1.80647 8.3709 1.80287 8.88804C1.79873 9.42622 2.19271 9.83044 2.67634 9.84408C3.22973 9.8599 3.61528 9.37455 3.59539 8.90096Z" fill="#14183F"/>
<path d="M4.19599 2.28149C4.18285 2.28464 4.16951 2.28672 4.15607 2.28773C3.63417 2.28773 3.11223 2.28773 2.59025 2.28773C2.57781 2.28695 2.56545 2.2853 2.55322 2.2828C2.56358 2.2828 2.57381 2.28091 2.58417 2.28091H4.17541C4.18232 2.28077 4.18908 2.2812 4.19599 2.28149Z" fill="white"/>
</g>
<defs>
<clipPath id="clip0_53_5540">
<rect width="13" height="13" fill="white"/>
</clipPath>
</defs>
</svg>
