<svg width="20" height="16" viewBox="0 0 20 16" fill="none" xmlns="http://www.w3.org/2000/svg">
<path d="M18.3333 8.24999V14.5C18.3333 14.721 18.2455 14.933 18.0893 15.0893C17.933 15.2455 17.721 15.3333 17.5 15.3333H16.6667C16.4457 15.3333 16.2337 15.2455 16.0774 15.0893C15.9211 14.933 15.8333 14.721 15.8333 14.5V13.6667H4.16667V14.5C4.16667 14.721 4.07887 14.933 3.92259 15.0893C3.76631 15.2455 3.55435 15.3333 3.33333 15.3333H2.5C2.27899 15.3333 2.06702 15.2455 1.91074 15.0893C1.75446 14.933 1.66667 14.721 1.66667 14.5V8.24999L0.630833 7.99166C0.450628 7.94652 0.290674 7.84245 0.176379 7.696C0.0620851 7.54955 4.88369e-06 7.3691 0 7.18333L0 6.58333C0 6.47282 0.0438987 6.36684 0.122039 6.2887C0.200179 6.21056 0.30616 6.16666 0.416667 6.16666H1.97917L3.76083 1.41499C3.87994 1.09724 4.09321 0.823413 4.37213 0.630122C4.65105 0.436831 4.98232 0.333286 5.32167 0.333328H14.6783C15.0177 0.333286 15.349 0.436831 15.6279 0.630122C15.9068 0.823413 16.1201 1.09724 16.2392 1.41499L18.0208 6.16666H19.5833C19.6938 6.16666 19.7998 6.21056 19.878 6.2887C19.9561 6.36684 20 6.47282 20 6.58333V7.18333C20 7.3691 19.9379 7.54955 19.8236 7.696C19.7093 7.84245 19.5494 7.94652 19.3692 7.99166L18.3333 8.24999ZM3.33333 9.49999V11.1667C3.33333 11.3877 3.42113 11.5996 3.57741 11.7559C3.73369 11.9122 3.94565 12 4.16667 12H6.87083C6.94279 11.9999 7.01348 11.9811 7.07604 11.9456C7.13859 11.91 7.19088 11.8589 7.2278 11.7971C7.26472 11.7354 7.28502 11.6651 7.28672 11.5932C7.28842 11.5212 7.27146 11.4501 7.2375 11.3867C6.56667 10.1283 5.265 9.49999 3.33333 9.49999ZM16.6667 9.49999C14.7358 9.49999 13.4342 10.1292 12.7617 11.3867C12.7277 11.4502 12.7107 11.5214 12.7125 11.5934C12.7142 11.6654 12.7346 11.7357 12.7716 11.7975C12.8086 11.8593 12.861 11.9104 12.9237 11.9459C12.9863 11.9814 13.0571 12 13.1292 12H15.8333C16.0543 12 16.2663 11.9122 16.4226 11.7559C16.5789 11.5996 16.6667 11.3877 16.6667 11.1667V9.49999ZM5 1.99999L3.69917 5.90333C3.65746 6.02854 3.64609 6.16186 3.666 6.29233C3.6859 6.42279 3.7365 6.54666 3.81364 6.65375C3.89078 6.76083 3.99224 6.84806 4.10969 6.90825C4.22713 6.96845 4.35719 6.99989 4.48917 6.99999H15.5108C15.6428 6.99989 15.7729 6.96845 15.8903 6.90825C16.0078 6.84806 16.1092 6.76083 16.1864 6.65375C16.2635 6.54666 16.3141 6.42279 16.334 6.29233C16.3539 6.16186 16.3425 6.02854 16.3008 5.90333L15 1.99999H5Z" fill="#14183F"/>
</svg>
