<svg width="42" height="42" viewBox="0 0 42 42" fill="none" xmlns="http://www.w3.org/2000/svg">
<g clip-path="url(#clip0_52_4841)">
<path d="M32.137 30.387L21 41.524L9.86301 30.387C7.66035 28.1843 6.16033 25.3779 5.55262 22.3227C4.94492 19.2675 5.25684 16.1007 6.44892 13.2228C7.64101 10.3449 9.65973 7.88509 12.2498 6.15446C14.8399 4.42384 17.885 3.50012 21 3.50012C24.1151 3.50012 27.1601 4.42384 29.7502 6.15446C32.3403 7.88509 34.359 10.3449 35.5511 13.2228C36.7432 16.1007 37.0551 19.2675 36.4474 22.3227C35.8397 25.3779 34.3397 28.1843 32.137 30.387ZM21 22.75C21.9283 22.75 22.8185 22.3812 23.4749 21.7249C24.1313 21.0685 24.5 20.1782 24.5 19.25C24.5 18.3217 24.1313 17.4315 23.4749 16.7751C22.8185 16.1187 21.9283 15.75 21 15.75C20.0717 15.75 19.1815 16.1187 18.5251 16.7751C17.8688 17.4315 17.5 18.3217 17.5 19.25C17.5 20.1782 17.8688 21.0685 18.5251 21.7249C19.1815 22.3812 20.0717 22.75 21 22.75Z" fill="#B7B7B7
"/>
<circle cx="21" cy="19" r="11" fill="white"/>
<g clip-path="url(#clip1_52_4841)">
<path d="M26.8333 18.875V23.25C26.8333 23.4047 26.7719 23.5531 26.6625 23.6625C26.5531 23.7719 26.4047 23.8334 26.25 23.8334H25.6667C25.512 23.8334 25.3636 23.7719 25.2542 23.6625C25.1448 23.5531 25.0833 23.4047 25.0833 23.25V22.6667H16.9167V23.25C16.9167 23.4047 16.8552 23.5531 16.7458 23.6625C16.6364 23.7719 16.488 23.8334 16.3333 23.8334H15.75C15.5953 23.8334 15.4469 23.7719 15.3375 23.6625C15.2281 23.5531 15.1667 23.4047 15.1667 23.25V18.875L14.4416 18.6942C14.3154 18.6626 14.2035 18.5898 14.1235 18.4872C14.0435 18.3847 14 18.2584 14 18.1284V17.7084C14 17.631 14.0307 17.5568 14.0854 17.5021C14.1401 17.4474 14.2143 17.4167 14.2917 17.4167H15.3854L16.6326 14.0905C16.716 13.8681 16.8652 13.6764 17.0605 13.5411C17.2557 13.4058 17.4876 13.3333 17.7252 13.3334H24.2748C24.5124 13.3333 24.7443 13.4058 24.9395 13.5411C25.1348 13.6764 25.284 13.8681 25.3674 14.0905L26.6146 17.4167H27.7083C27.7857 17.4167 27.8599 17.4474 27.9146 17.5021C27.9693 17.5568 28 17.631 28 17.7084V18.1284C28 18.2584 27.9565 18.3847 27.8765 18.4872C27.7965 18.5898 27.6846 18.6626 27.5584 18.6942L26.8333 18.875ZM16.3333 19.75V20.9167C16.3333 21.0714 16.3948 21.2198 16.5042 21.3292C16.6136 21.4386 16.762 21.5 16.9167 21.5H18.8096C18.8599 21.5 18.9094 21.4868 18.9532 21.462C18.997 21.4371 19.0336 21.4013 19.0595 21.358C19.0853 21.3148 19.0995 21.2656 19.1007 21.2153C19.1019 21.1649 19.09 21.1151 19.0662 21.0707C18.5967 20.1899 17.6855 19.75 16.3333 19.75ZM25.6667 19.75C24.3151 19.75 23.4039 20.1905 22.9332 21.0707C22.9094 21.1152 22.8975 21.165 22.8987 21.2154C22.8999 21.2658 22.9142 21.315 22.9401 21.3583C22.966 21.4015 23.0027 21.4373 23.0466 21.4622C23.0904 21.487 23.14 21.5001 23.1904 21.5H25.0833C25.238 21.5 25.3864 21.4386 25.4958 21.3292C25.6052 21.2198 25.6667 21.0714 25.6667 20.9167V19.75ZM17.5 14.5L16.5894 17.2324C16.5602 17.32 16.5523 17.4133 16.5662 17.5047C16.5801 17.596 16.6155 17.6827 16.6695 17.7577C16.7235 17.8326 16.7946 17.8937 16.8768 17.9358C16.959 17.978 17.05 18 17.1424 18H24.8576C24.95 18 25.041 17.978 25.1232 17.9358C25.2054 17.8937 25.2765 17.8326 25.3305 17.7577C25.3844 17.6827 25.4199 17.596 25.4338 17.5047C25.4477 17.4133 25.4398 17.32 25.4106 17.2324L24.5 14.5H17.5Z" fill="#B7B7B7
"/>
</g>
</g>
<defs>
<clipPath id="clip0_52_4841">
<rect width="42" height="42" fill="white"/>
</clipPath>
<clipPath id="clip1_52_4841">
<rect width="14" height="14" fill="white" transform="translate(14 11)"/>
</clipPath>
</defs>
</svg>
