<svg width="12" height="12" viewBox="0 0 12 12" fill="none" xmlns="http://www.w3.org/2000/svg">
<path d="M5.99996 0.166687C2.78579 0.166687 0.166626 2.78585 0.166626 6.00002C0.166626 9.21419 2.78579 11.8334 5.99996 11.8334C9.21413 11.8334 11.8333 9.21419 11.8333 6.00002C11.8333 2.78585 9.21413 0.166687 5.99996 0.166687ZM8.78829 4.65835L5.48079 7.96585C5.39913 8.04752 5.28829 8.09419 5.17163 8.09419C5.05496 8.09419 4.94413 8.04752 4.86246 7.96585L3.21163 6.31502C3.04246 6.14585 3.04246 5.86585 3.21163 5.69669C3.38079 5.52752 3.66079 5.52752 3.82996 5.69669L5.17163 7.03835L8.16996 4.04002C8.33913 3.87085 8.61913 3.87085 8.78829 4.04002C8.95746 4.20919 8.95746 4.48335 8.78829 4.65835Z" fill="#14183F"/>
</svg>
