<svg width="89" height="89" viewBox="0 0 89 89" fill="none" xmlns="http://www.w3.org/2000/svg">
<path d="M41.1707 0H47.6064C48.1483 0.0697096 48.6886 0.14465 49.2305 0.209131C55.4223 0.928883 61.2759 2.7117 66.6468 5.90441C78.4586 12.9329 85.7203 23.1784 88.3047 36.6934C88.6027 38.2479 88.7683 39.8303 89.0018 41.3988V47.6605C88.8746 48.659 88.7631 49.6611 88.6184 50.658C87.5571 57.9426 85.0372 64.6836 80.5847 70.5566C69.9544 84.5822 55.7795 90.6312 38.3075 88.6288C31.1013 87.8162 24.2507 85.063 18.4863 80.6627C4.41948 70.0146 -1.6607 55.8147 0.386934 38.3141C1.38723 29.7747 4.94227 22.2199 10.5537 15.6916C17.5 7.60706 26.2168 2.5566 36.7356 0.681412C38.2081 0.414773 39.6929 0.223071 41.1707 0ZM38.9418 47.894C38.6595 47.6256 38.4486 47.4322 38.2447 47.23C36.0298 45.0185 33.8305 42.7912 31.5964 40.5971C29.3623 38.403 26.0547 38.4414 23.8241 40.6878C21.6859 42.84 21.665 46.139 23.8241 48.3279C27.5418 52.076 31.2723 55.8066 35.0156 59.5198C37.3403 61.822 40.4754 61.7993 42.8158 59.4954C44.5724 57.7684 46.3011 56.0099 48.0438 54.2672C53.6796 48.6288 59.3142 42.994 64.9477 37.3626C66.192 36.1218 66.8646 34.6561 66.6695 32.9099C66.4081 30.5677 65.1011 28.9504 62.8844 28.1679C60.6903 27.3959 58.7943 27.9936 57.1771 29.6126C55.5599 31.2316 53.8992 32.8925 52.2593 34.5324L38.9418 47.894Z" fill="#02B9B1"/>
</svg>
