<svg width="18" height="18" viewBox="0 0 18 18" fill="none" xmlns="http://www.w3.org/2000/svg">
<g clip-path="url(#clip0_395_8696)">
<path d="M18.0019 18H0C0.00816612 17.9377 0.0204119 17.8761 0.0366348 17.8154C0.595611 16.1363 1.1578 14.458 1.7232 12.7802C1.75163 12.6956 1.8316 12.5855 1.90774 12.5662C3.12881 12.2523 4.35279 11.9518 5.59362 11.6436L7.82086 15.1973C7.88881 14.9978 7.94469 14.8333 8.00011 14.6684C8.23574 13.9659 8.46801 13.2625 8.70895 12.5624C8.75713 12.4239 8.74702 12.3287 8.62848 12.2316C8.4497 12.0874 8.28442 11.9234 8.11335 11.7681L8.15093 11.7109H9.84761C9.86351 11.7306 9.87942 11.7498 9.8958 11.7695C9.71413 11.933 9.52332 12.0878 9.35611 12.2648C9.32675 12.3005 9.30567 12.3423 9.29442 12.3871C9.28317 12.4319 9.28203 12.4786 9.29105 12.5239C9.57488 13.4034 9.8693 14.2789 10.1767 15.1925C10.2394 15.0997 10.2881 15.0324 10.3319 14.9617C10.9887 13.9121 11.6474 12.8639 12.2975 11.8099C12.3784 11.6787 12.4478 11.645 12.6006 11.6839C13.7532 11.9796 14.9092 12.2609 16.0614 12.5581C16.1068 12.5741 16.1483 12.5995 16.1832 12.6326C16.2181 12.6658 16.2456 12.7059 16.2638 12.7504C16.8321 14.4349 17.3954 16.1202 17.9537 17.8062C17.9745 17.8639 17.9831 17.925 18.0019 18Z" fill="#14183F"/>
<path d="M9.00571 0C10.4547 0.0139438 11.8868 0.135592 13.2775 0.557752C13.838 0.727963 14.383 0.935196 14.8465 1.30879C15.4571 1.80115 15.4865 2.3916 14.861 2.86569C14.4986 3.14024 14.0514 3.30276 13.6481 3.52682C13.5478 3.59152 13.4574 3.67039 13.3797 3.76098C13.1388 4.01052 12.933 4.3096 12.6569 4.50769C12.0141 4.96688 11.2594 5.16738 10.4884 5.28614C9.11028 5.49866 7.74175 5.44914 6.40647 5.01544C5.86195 4.8385 5.34635 4.59905 4.93579 4.18891C4.82399 4.07784 4.70738 3.95138 4.65149 3.80858C4.57728 3.61914 4.43414 3.56432 4.27368 3.48691C3.89348 3.30468 3.49401 3.13928 3.16007 2.89021C2.49894 2.39689 2.51822 1.79298 3.16779 1.28908C3.72243 0.856341 4.37681 0.640935 5.04228 0.463993C6.34046 0.118283 7.66947 0.00576985 9.00571 0ZM8.99606 3.58115C9.11425 3.58243 9.2315 3.56023 9.341 3.51586C9.4505 3.47148 9.55007 3.40581 9.63389 3.32266C9.71771 3.23952 9.78411 3.14057 9.82923 3.03158C9.87435 2.92258 9.89727 2.80572 9.89669 2.68779C9.89526 2.56996 9.8706 2.45357 9.8241 2.34526C9.7776 2.23695 9.71016 2.13884 9.62566 2.05653C9.54115 1.97422 9.44125 1.90933 9.33161 1.86555C9.22197 1.82177 9.10476 1.79997 8.98668 1.80139C8.86859 1.80281 8.75194 1.82743 8.64339 1.87383C8.53484 1.92023 8.43652 1.98751 8.35403 2.07183C8.27154 2.15615 8.20651 2.25586 8.16264 2.36525C8.11877 2.47465 8.09691 2.5916 8.09834 2.70942C8.10289 2.94337 8.19971 3.16609 8.36777 3.32928C8.53582 3.49247 8.76157 3.58297 8.99606 3.58115Z" fill="#14183F"/>
<path d="M5.39014 6.29877H12.5797C12.7821 8.15618 12.1981 9.65826 10.5197 10.4608C8.1431 11.5974 5.39014 9.83568 5.39014 7.20175V6.29877Z" fill="#14183F"/>
</g>
<defs>
<clipPath id="clip0_395_8696">
<rect width="18" height="18" fill="#14183F"/>
</clipPath>
</defs>
</svg>
