<svg width="18" height="12" viewBox="0 0 18 12" fill="none" xmlns="http://www.w3.org/2000/svg">
<g clip-path="url(#clip0_397_8840)">
<path d="M11.6831 12H0C0.00529974 11.9585 0.0132472 11.9174 0.0237757 11.8769C0.386547 10.7576 0.751402 9.63866 1.11834 8.52016C1.13679 8.46375 1.1887 8.39034 1.23811 8.37752C2.03057 8.1682 2.82492 7.96786 3.63021 7.76239L5.07567 10.1316C5.11977 9.99853 5.15604 9.8889 5.192 9.77895C5.34493 9.31063 5.49566 8.84167 5.65203 8.37496C5.6833 8.28264 5.67674 8.21917 5.59981 8.15442C5.48378 8.05825 5.37652 7.94895 5.2655 7.84541L5.28988 7.80727H6.39102C6.40134 7.82041 6.41166 7.83323 6.42229 7.84637C6.30439 7.95536 6.18056 8.05858 6.07204 8.17654C6.05298 8.20035 6.0393 8.22819 6.032 8.25807C6.0247 8.28794 6.02396 8.3191 6.02982 8.34931C6.21402 8.93559 6.40509 9.51931 6.60462 10.1283C6.64527 10.0665 6.67686 10.0216 6.70532 9.97449C7.13158 9.27473 7.55909 8.57594 7.98096 7.8733C8.0335 7.78579 8.07854 7.76335 8.17767 7.78932C8.92573 7.98645 9.67598 8.17397 10.4237 8.37207C10.4532 8.38275 10.4801 8.39969 10.5028 8.42178C10.5254 8.44388 10.5432 8.47064 10.5551 8.50029C10.9239 9.62327 11.2895 10.7468 11.6518 11.8708C11.6653 11.9093 11.6709 11.95 11.6831 12Z" fill="#14183F"/>
<path d="M5.84466 0C6.78505 0.00929587 7.71449 0.0903945 8.61704 0.371835C8.98075 0.485309 9.33446 0.623464 9.63531 0.872529C10.0315 1.20077 10.0506 1.5944 9.64468 1.91046C9.40951 2.09349 9.11929 2.20184 8.85753 2.35121C8.79241 2.39435 8.73375 2.44693 8.68335 2.50732C8.52698 2.67368 8.39344 2.87306 8.21425 3.00513C7.79706 3.31125 7.30732 3.44492 6.80695 3.5241C5.91253 3.66578 5.02437 3.63276 4.15778 3.34363C3.80439 3.22567 3.46977 3.06603 3.20332 2.79261C3.13076 2.71856 3.05509 2.63426 3.01881 2.53905C2.97065 2.41276 2.87776 2.37622 2.77362 2.32461C2.52687 2.20312 2.26762 2.09285 2.05089 1.92681C1.62182 1.59793 1.63434 1.19532 2.0559 0.859387C2.41586 0.570894 2.84055 0.42729 3.27243 0.309329C4.11494 0.0788554 4.97745 0.00384657 5.84466 0ZM5.8384 2.38744C5.9151 2.38829 5.9912 2.37349 6.06226 2.3439C6.13333 2.31432 6.19795 2.27054 6.25235 2.21511C6.30674 2.15968 6.34984 2.09372 6.37912 2.02105C6.4084 1.94839 6.42328 1.87048 6.4229 1.79186C6.42198 1.71331 6.40597 1.63572 6.37579 1.56351C6.34561 1.4913 6.30185 1.42589 6.247 1.37102C6.19216 1.31615 6.12733 1.27289 6.05617 1.2437C5.98502 1.21452 5.90894 1.19998 5.83231 1.20093C5.75568 1.20188 5.67997 1.21829 5.60952 1.24922C5.53907 1.28016 5.47526 1.32501 5.42173 1.38122C5.36819 1.43743 5.32599 1.5039 5.29752 1.57684C5.26905 1.64977 5.25486 1.72773 5.25578 1.80628C5.25874 1.96225 5.32158 2.11073 5.43064 2.21952C5.53971 2.32831 5.68622 2.38865 5.8384 2.38744Z" fill="#14183F"/>
<path d="M3.49829 4.19916H8.16428C8.29563 5.43743 7.9166 6.43882 6.82734 6.97381C5.28494 7.73159 3.49829 6.5571 3.49829 4.80115V4.19916Z" fill="#14183F"/>
<path d="M12.8706 12V4.19914H10.5833L14.3082 0.381104L18 4.16516H15.7599V12H12.8706Z" fill="#14183F"/>
</g>
<defs>
<clipPath id="clip0_397_8840">
<rect width="18" height="12" fill="white"/>
</clipPath>
</defs>
</svg>
