<svg width="13" height="12" viewBox="0 0 13 12" fill="none" xmlns="http://www.w3.org/2000/svg">
<path d="M11.25 7.89177V11.2547C11.2499 11.4082 11.1888 11.5554 11.0801 11.6639C10.9715 11.7724 10.8243 11.8334 10.6708 11.8334H1.32926C1.25266 11.8328 1.17691 11.8172 1.10634 11.7874C1.03577 11.7576 0.971766 11.7142 0.917977 11.6596C0.864188 11.6051 0.821671 11.5405 0.792852 11.4695C0.764032 11.3985 0.749476 11.3225 0.750014 11.2459V4.25002H4.25001C4.40472 4.25002 4.5531 4.18856 4.66249 4.07917C4.77189 3.96977 4.83335 3.8214 4.83335 3.66669V0.166687H10.6678C10.9893 0.166687 11.25 0.432104 11.25 0.745354V2.9416L6.0006 8.1916L5.9971 10.6638L8.47393 10.6673L11.25 7.89177ZM11.7038 4.13802L12.5287 4.96285L7.99151 9.50002L7.16551 9.49885L7.16668 8.67519L11.7038 4.13802ZM0.750014 3.08335L3.66668 0.168437V3.08335H0.750014Z" fill="black"/>
</svg>
