<svg width="16" height="18" viewBox="0 0 16 18" fill="none" xmlns="http://www.w3.org/2000/svg">
<path d="M1.33336 15.6667V10.6667C1.33336 8.89856 2.03574 7.20287 3.28598 5.95263C4.53622 4.70238 6.23192 4.00001 8.00003 4.00001C9.76814 4.00001 11.4638 4.70238 12.7141 5.95263C13.9643 7.20287 14.6667 8.89856 14.6667 10.6667V15.6667H15.5V17.3333H0.500027V15.6667H1.33336ZM3.00003 10.6667H4.66669C4.66669 9.78262 5.01788 8.93477 5.643 8.30965C6.26813 7.68453 7.11597 7.33334 8.00003 7.33334V5.66667C6.67394 5.66667 5.40217 6.19346 4.46449 7.13114C3.52681 8.06882 3.00003 9.34059 3.00003 10.6667ZM7.16669 0.666672H8.83336V3.16667H7.16669V0.666672ZM14.4817 3.00667L15.66 4.18501L13.8934 5.95251L12.7142 4.77417L14.4817 3.00667ZM0.340027 4.18501L1.51836 3.00667L3.28586 4.77334L2.10836 5.95334L0.340027 4.18501Z" fill="#14183F"/>
</svg>
