<svg width="14" height="12" viewBox="0 0 14 12" fill="none" xmlns="http://www.w3.org/2000/svg">
<path d="M0.688477 6C1.23681 3.01333 3.85423 0.75 6.99956 0.75C10.1449 0.75 12.7617 3.01333 13.3106 6C12.7623 8.98667 10.1449 11.25 6.99956 11.25C3.85423 11.25 1.23739 8.98667 0.688477 6ZM6.99956 8.91667C7.77311 8.91667 8.51497 8.60938 9.06195 8.06239C9.60894 7.51541 9.91623 6.77355 9.91623 6C9.91623 5.22645 9.60894 4.48459 9.06195 3.93761C8.51497 3.39062 7.77311 3.08333 6.99956 3.08333C6.22601 3.08333 5.48415 3.39062 4.93717 3.93761C4.39018 4.48459 4.08289 5.22645 4.08289 6C4.08289 6.77355 4.39018 7.51541 4.93717 8.06239C5.48415 8.60938 6.22601 8.91667 6.99956 8.91667ZM6.99956 7.75C6.53543 7.75 6.09031 7.56563 5.76212 7.23744C5.43393 6.90925 5.24956 6.46413 5.24956 6C5.24956 5.53587 5.43393 5.09075 5.76212 4.76256C6.09031 4.43437 6.53543 4.25 6.99956 4.25C7.46369 4.25 7.90881 4.43437 8.237 4.76256C8.56519 5.09075 8.74956 5.53587 8.74956 6C8.74956 6.46413 8.56519 6.90925 8.237 7.23744C7.90881 7.56563 7.46369 7.75 6.99956 7.75Z" fill="#EB2E2E"/>
</svg>
