<svg width="20" height="20" viewBox="0 0 20 20" fill="none" xmlns="http://www.w3.org/2000/svg">
<path fill-rule="evenodd" clip-rule="evenodd" d="M3 2C2.44772 2 2 2.44772 2 3V17C2 17.5523 2.44772 18 3 18H17C17.5523 18 18 17.5523 18 17V3C18 2.44772 17.5523 2 17 2H3ZM10.873 14.8445C10.9732 14.9508 11.0989 15.0002 11.2446 15.0002C11.4824 15.0008 11.6711 14.8586 11.735 14.631L13.0406 9.98055C13.3536 8.8671 13.6662 7.75353 13.9784 6.63984C14.0322 6.44801 13.9861 6.2799 13.8421 6.14304C13.6919 6.0003 13.5174 5.97044 13.3179 6.02669C12.0751 6.37451 10.8322 6.72266 9.58901 7.07115C8.36817 7.41396 7.14742 7.7572 5.92676 8.10086C5.88417 8.11287 5.84153 8.12475 5.79889 8.13663C5.63207 8.1831 5.4652 8.22958 5.30106 8.28409C5.12543 8.34244 5.00225 8.52374 5.00005 8.70999C4.99777 8.92298 5.06668 9.10181 5.27232 9.19709C6.51201 9.77112 7.75216 10.3442 8.99277 10.9164C9.03151 10.9329 9.06228 10.9639 9.07853 11.0027C9.65277 12.2499 10.228 13.4969 10.8042 14.7437C10.8217 14.7807 10.8449 14.8147 10.873 14.8445Z" fill="#02B9B1"/>
</svg>
