<svg width="104" height="73" viewBox="0 0 104 73" fill="none" xmlns="http://www.w3.org/2000/svg">
<g clip-path="url(#clip0_625_9175)">
<path d="M10.078 72.8174L9.89532 71.5125H9.804C9.55258 71.7945 9.2653 72.0424 8.9495 72.2498C8.15507 72.7546 7.2292 73.0134 6.28819 72.9935C5.45129 73.0104 4.62022 72.8506 3.84921 72.5246C3.07819 72.1986 2.38455 71.7137 1.81353 71.1015C0.645334 69.7876 0 68.0905 0 66.3323C0 64.574 0.645334 62.8769 1.81353 61.563C2.38455 60.9508 3.07819 60.4659 3.84921 60.1399C4.62022 59.8139 5.45129 59.6541 6.28819 59.671C7.20831 59.6479 8.12048 59.8463 8.94798 60.2494C9.77549 60.6524 10.4941 61.2484 11.0433 61.9871C11.5529 62.689 11.945 63.469 12.2044 64.2967H9.15823C8.98379 63.9775 8.76408 63.6852 8.50595 63.429C8.21352 63.1359 7.86408 62.9059 7.47925 62.7533C7.09443 62.6007 6.68239 62.5287 6.26862 62.5417C5.82026 62.5332 5.37547 62.6229 4.96535 62.8043C4.55524 62.9857 4.1897 63.2546 3.8943 63.5921C3.27797 64.3736 2.94278 65.3401 2.94278 66.3355C2.94278 67.331 3.27797 68.2974 3.8943 69.079C4.20815 69.4096 4.586 69.673 5.00484 69.8529C5.42368 70.0329 5.87474 70.1256 6.33058 70.1256C6.78642 70.1256 7.2375 70.0329 7.65634 69.8529C8.07518 69.673 8.45302 69.4096 8.76686 69.079C9.0273 68.7644 9.21646 68.3972 9.3213 68.0025H6.45126V65.9669H12.2761V72.8109L10.078 72.8174Z" fill="#474747"/>
<path d="M13.6133 72.8173V59.8731H19.6273C20.1968 59.852 20.7643 59.9516 21.2927 60.1652C21.821 60.3788 22.2982 60.7017 22.6931 61.1127C23.4606 62.0378 23.8807 63.2021 23.8807 64.4042C23.8807 65.6063 23.4606 66.7706 22.6931 67.6957C22.2982 68.1067 21.821 68.4296 21.2927 68.6433C20.7643 68.8569 20.1968 68.9564 19.6273 68.9353H16.5746V72.8173H13.6133ZM16.5746 66.0451H19.4316C19.6308 66.0511 19.829 66.014 20.0125 65.9363C20.196 65.8586 20.3605 65.7421 20.4949 65.5949C20.7663 65.2499 20.9138 64.8236 20.9138 64.3846C20.9138 63.9457 20.7663 63.5194 20.4949 63.1744C20.362 63.0249 20.1978 62.9066 20.0141 62.8276C19.8304 62.7487 19.6315 62.7112 19.4316 62.7177H16.5681L16.5746 66.0451Z" fill="#474747"/>
<path d="M24.5845 68.5636H27.5393C27.5408 68.8165 27.6004 69.0657 27.7135 69.292C27.8266 69.5182 27.9902 69.7154 28.1916 69.8684C28.7062 70.2448 29.3361 70.4294 29.9723 70.3904C30.5535 70.4298 31.1331 70.2934 31.6357 69.9989C31.8045 69.8925 31.9438 69.7453 32.0407 69.5708C32.1376 69.3964 32.189 69.2003 32.1901 69.0007C32.1932 68.8363 32.1569 68.6735 32.0843 68.5259C32.0117 68.3784 31.9048 68.2504 31.7726 68.1525C31.3407 67.8672 30.8504 67.6822 30.3376 67.611L28.3025 67.2457C27.3392 67.1295 26.4374 66.7116 25.726 66.0517C25.1372 65.3901 24.8346 64.5221 24.8845 63.6377C24.8745 63.0951 24.9865 62.5571 25.2123 62.0636C25.4381 61.5701 25.7719 61.1337 26.1891 60.7866C27.2095 59.9848 28.4876 59.5834 29.7832 59.6579C31.1936 59.5677 32.5875 60.0022 33.6969 60.878C34.1511 61.2796 34.5108 61.777 34.7499 62.3343C34.989 62.8915 35.1016 63.4949 35.0797 64.101H32.1249C32.1219 63.8483 32.0617 63.5996 31.9487 63.3735C31.8357 63.1475 31.6729 62.9501 31.4726 62.7961C30.9934 62.4233 30.396 62.2357 29.7897 62.2676C29.2783 62.2357 28.7708 62.3758 28.3482 62.6656C28.1931 62.78 28.0673 62.9295 27.9812 63.1019C27.895 63.2743 27.8509 63.4646 27.8524 63.6573C27.8442 63.8033 27.8707 63.9492 27.9296 64.083C27.9886 64.2168 28.0783 64.3347 28.1916 64.4272C28.5667 64.658 28.9872 64.8049 29.4244 64.8578L31.453 65.2297C32.4978 65.3488 33.4823 65.7809 34.2774 66.4693C34.5853 66.8151 34.8211 67.2187 34.9712 67.6567C35.1213 68.0948 35.1826 68.5583 35.1515 69.0203C35.1668 69.5768 35.0507 70.1291 34.8127 70.6324C34.5747 71.1357 34.2215 71.5758 33.7817 71.917C32.6773 72.7253 31.3252 73.1222 29.9593 73.0392C28.5444 73.1147 27.1512 72.6665 26.0456 71.78C25.5739 71.39 25.1972 70.8977 24.9441 70.3404C24.6909 69.7831 24.5679 69.1754 24.5845 68.5636Z" fill="#474747"/>
<path d="M38.0349 68.5636H40.9897C40.9902 68.8167 41.0494 69.0663 41.1626 69.2927C41.2757 69.5191 41.4398 69.7161 41.642 69.8684C42.1535 70.2458 42.7818 70.4307 43.4162 70.3904C43.9974 70.4298 44.5769 70.2934 45.0795 69.9989C45.2492 69.8934 45.3892 69.7464 45.4862 69.5717C45.5832 69.3971 45.6341 69.2005 45.634 69.0007C45.6371 68.8363 45.6008 68.6735 45.5282 68.5259C45.4555 68.3784 45.3487 68.2504 45.2165 68.1525C44.7845 67.8672 44.2942 67.6822 43.7815 67.611L41.7529 67.2457C40.7781 67.1362 39.8639 66.7178 39.1437 66.0517C38.555 65.3901 38.2524 64.5221 38.3023 63.6377C38.2922 63.0951 38.4042 62.5571 38.63 62.0636C38.8559 61.5701 39.1897 61.1337 39.6069 60.7866C40.6273 59.9848 41.9054 59.5834 43.2009 59.6579C44.6113 59.5677 46.0053 60.0022 47.1146 60.878C47.5689 61.2796 47.9285 61.777 48.1676 62.3343C48.4067 62.8915 48.5194 63.4949 48.4975 64.101H45.5231C45.5216 63.848 45.462 63.5988 45.3489 63.3726C45.2358 63.1463 45.0722 62.9491 44.8708 62.7961C44.3916 62.4233 43.7941 62.2357 43.1879 62.2676C42.6764 62.2357 42.169 62.3758 41.7464 62.6656C41.5913 62.78 41.4655 62.9295 41.3793 63.1019C41.2932 63.2743 41.2491 63.4646 41.2506 63.6573C41.2424 63.8033 41.2688 63.9492 41.3278 64.083C41.3868 64.2168 41.4765 64.3347 41.5898 64.4272C41.9649 64.658 42.3854 64.8049 42.8226 64.8578L44.8512 65.2297C45.8961 65.3488 46.8805 65.7809 47.6756 66.4693C47.9847 66.8142 48.2214 67.2178 48.3715 67.656C48.5217 68.0942 48.5822 68.5582 48.5497 69.0203C48.5609 69.5679 48.4455 70.1108 48.2124 70.6065C47.9793 71.1022 47.6349 71.5373 47.206 71.8779C46.0998 72.6876 44.7452 73.0846 43.3771 73.0001C41.9621 73.0756 40.5689 72.6273 39.4634 71.7409C39.0029 71.3518 38.6355 70.8644 38.3883 70.3145C38.1411 69.7646 38.0203 69.1663 38.0349 68.5636Z" fill="#474747"/>
<path d="M49.6128 72.8173V59.8732H58.4838V62.5546H52.5676V65.0469H58.1186V67.6566H52.5676V70.1554H58.4838V72.8369L49.6128 72.8173Z" fill="#474747"/>
<path d="M59.71 72.8173V59.8732H65.8088C66.3776 59.8511 66.9448 59.9482 67.4739 60.1583C68.003 60.3685 68.4823 60.6869 68.8811 61.0932C69.2827 61.5236 69.5945 62.0296 69.7984 62.5819C70.0022 63.1342 70.0939 63.7215 70.0682 64.3097C70.1201 65.0134 69.9785 65.7179 69.6589 66.3469C69.3393 66.9759 68.8538 67.5055 68.2549 67.8785C67.7049 68.1993 67.0939 68.4015 66.4611 68.4722L70.4335 72.8173H66.7351L63.0366 68.6548H62.6713V72.8173H59.71ZM62.6713 65.9734H65.6262C65.8254 65.9794 66.0235 65.9423 66.207 65.8646C66.3905 65.7869 66.5551 65.6704 66.6894 65.5232C66.9624 65.1777 67.1109 64.7501 67.1109 64.3097C67.1109 63.8693 66.9624 63.4417 66.6894 63.0962C66.5551 62.9489 66.3905 62.8325 66.207 62.7548C66.0235 62.6771 65.8254 62.64 65.6262 62.646H62.6713V65.9734Z" fill="#474747"/>
<path d="M73.8775 72.8173L69.6572 59.8732H72.9186L75.88 69.118H76.1801L79.1414 59.8732H82.4028L78.1369 72.8173H73.8775Z" fill="#474747"/>
<path d="M83.1792 72.8173V59.8732H92.0568V62.5546H86.1406V65.0469H91.685V67.6566H86.1406V70.1554H92.0568V72.8369L83.1792 72.8173Z" fill="#474747"/>
<path d="M93.2764 72.8173V59.8732H99.3817C99.9506 59.8511 100.518 59.9482 101.047 60.1583C101.576 60.3685 102.055 60.6869 102.454 61.0932C102.855 61.5239 103.166 62.0302 103.368 62.5825C103.571 63.1348 103.662 63.722 103.635 64.3097C103.686 65.0134 103.545 65.7179 103.225 66.3469C102.906 66.9759 102.42 67.5055 101.821 67.8785C101.271 68.1993 100.66 68.4015 100.028 68.4722L104.006 72.8173H100.315L96.6095 68.6548H96.2377V72.8173H93.2764ZM96.2377 65.9734H99.1991C99.3982 65.979 99.5962 65.9416 99.7797 65.864C99.9631 65.7863 100.128 65.6701 100.262 65.5232C100.529 65.1749 100.673 64.7484 100.673 64.3097C100.673 63.871 100.529 63.4445 100.262 63.0962C100.128 62.9493 99.9631 62.8331 99.7797 62.7554C99.5962 62.6777 99.3982 62.6404 99.1991 62.646H96.2377V65.9734Z" fill="#474747"/>
<path d="M70.4922 22.7893C69.8908 21.098 69.0518 19.5009 68.0005 18.0461L63.2975 22.8415C63.7066 23.5295 64.0495 24.2548 64.3216 25.0075C65.0778 27.0904 65.2942 29.3308 64.9508 31.5199C64.6073 33.7091 63.7151 35.7755 62.3573 37.5265C60.9996 39.2775 59.2206 40.6561 57.1863 41.5335C55.152 42.411 52.9286 42.7588 50.7236 42.5446C48.5185 42.3303 46.4037 41.5609 44.5763 40.3082C42.7488 39.0555 41.2684 37.3602 40.273 35.3806C39.2777 33.4009 38.7998 31.2013 38.884 28.987C38.9682 26.7727 39.6118 24.6158 40.7546 22.7175L36.0647 17.9417C33.6406 21.2862 32.3389 25.3131 32.3467 29.444C32.3467 44.5216 51.7782 54.6929 51.7782 54.6929C51.7782 54.6929 71.6468 44.7304 71.6468 29.444C71.6493 27.1757 71.2587 24.9241 70.4922 22.7893ZM42.157 19.1879L42.9528 19.9708C43.4988 19.4452 44.0903 18.9693 44.7205 18.5485L44.7857 18.5028C46.9861 16.8813 49.6667 16.0451 52.3985 16.1279C55.1303 16.2107 57.7553 17.2077 59.8535 18.9595C60.2782 19.2806 60.6813 19.6293 61.0602 20.0034L61.8821 19.1879L64.8304 16.2585L65.724 15.3842C62.2706 12.0115 57.6968 10.0283 52.875 9.81292C48.0532 9.59752 43.3208 11.165 39.5805 14.2164C39.4631 14.3077 39.3588 14.4056 39.2479 14.4969L38.2955 15.3581L39.2087 16.2585L42.157 19.1879Z" fill="#474747"/>
<path d="M52.0457 -6.31231e-05C44.8718 -0.0147161 37.9614 2.70295 32.7185 7.60072L31.7988 8.46191L32.6925 9.34922L35.6082 12.2395L36.4496 13.068L37.3171 12.2721C41.3292 8.58354 46.58 6.53659 52.0294 6.53659C57.4788 6.53659 62.7295 8.58354 66.7416 12.2721L67.6092 13.068L68.4506 12.2395L71.3663 9.34922L72.2599 8.46191L71.3402 7.60072C66.1088 2.70558 59.2094 -0.0123274 52.0457 -6.31231e-05Z" fill="#02B9B1"/>
<path d="M65.7434 15.3581L64.8498 16.2323L61.9015 19.1617L61.0796 19.9773L60.2121 19.2204L59.8729 18.9334C57.7747 17.1816 55.1497 16.1845 52.4179 16.1017C49.6861 16.0189 47.0055 16.8552 44.8052 18.4767L44.7399 18.5223C44.4399 18.7442 44.1594 18.979 43.8724 19.2204L43.0049 19.9773L42.9722 19.9446L42.1765 19.1617L39.2281 16.2323L38.3149 15.332L39.2673 14.4708C39.3782 14.3794 39.4825 14.2816 39.5999 14.1902C42.8457 11.3713 46.9545 9.74209 51.2497 9.57104H52.0455C56.7588 9.57593 61.3019 11.334 64.7911 14.5034L65.7434 15.3581Z" fill="#02B9B1"/>
<path d="M52.0458 28.9221L52.9133 28.0609L57.6815 23.3438L58.6403 22.3978L57.5902 21.5366C56.0146 20.2952 54.0502 19.6526 52.0458 19.7229C50.0462 19.7059 48.0955 20.3402 46.4883 21.5301L45.4512 22.3913L46.41 23.3373L51.1782 28.0543L52.0458 28.9221Z" fill="#02B9B1"/>
</g>
<defs>
<clipPath id="clip0_625_9175">
<rect width="104" height="73" fill="white"/>
</clipPath>
</defs>
</svg>
