<svg width="112" height="26" viewBox="0 0 112 26" fill="none" xmlns="http://www.w3.org/2000/svg">
<g clip-path="url(#clip0_30_862)">
<path d="M18.8751 10.8321C18.5784 10.0303 18.1702 9.27211 17.6619 8.5788L15.3681 10.8837C15.564 11.2138 15.7306 11.5595 15.866 11.9173C16.1836 12.7731 16.3051 13.6864 16.2221 14.593C16.1391 15.4995 15.8536 16.3774 15.3856 17.1648C14.9177 17.9521 14.2786 18.63 13.5133 19.1507C12.748 19.6713 11.8752 20.0221 10.9561 20.1784C10.0369 20.3348 9.09388 20.2929 8.19316 20.0556C7.29243 19.8183 6.4559 19.3915 5.74238 18.805C5.02886 18.2186 4.45565 17.4869 4.06305 16.6612C3.67045 15.8355 3.46799 14.936 3.46989 14.0258C3.47317 13.306 3.60585 12.5924 3.8619 11.9173C4.00067 11.5358 4.17814 11.1688 4.39165 10.8217L2.10842 8.54779C1.58285 9.25959 1.16038 10.0387 0.852917 10.8631C0.481938 11.8747 0.291995 12.9411 0.291382 14.0155C0.291382 21.1835 9.76864 26.0207 9.76864 26.0207C9.76864 26.0207 19.4366 21.2661 19.4366 13.9845C19.4343 12.9102 19.2444 11.8441 18.8751 10.8321ZM5.06445 9.12146L5.45115 9.49354C5.71528 9.24261 6.00256 9.01599 6.30935 8.81653H6.34113C7.41326 8.04572 8.71952 7.64817 10.0507 7.68753C11.382 7.72688 12.6612 8.20085 13.6835 9.03358C13.8941 9.19132 14.0924 9.36406 14.2768 9.55037L14.6741 9.16278L16.115 7.7726L16.5494 7.35399C14.8711 5.74507 12.6449 4.79439 10.2946 4.68289C7.94433 4.5714 5.63409 5.30689 3.80363 6.74935L3.64472 6.8889L3.17853 7.29715L3.62351 7.7261L5.06445 9.12146Z" fill="#474747"/>
<path d="M9.86927 -4.06588e-05C6.37273 -0.00420472 3.00543 1.28908 0.450276 3.61753L0 4.02579L0.4344 4.44439L1.8594 5.82426L2.26732 6.217L2.69111 5.83975C4.6464 4.08634 7.20544 3.11326 9.86131 3.11326C12.5172 3.11326 15.0762 4.08634 17.0315 5.83975L17.4553 6.217L17.8632 5.82426L19.2882 4.44439L19.7226 4.02579L19.2724 3.61753C16.7244 1.28782 13.3614 -0.0059826 9.86927 -4.06588e-05Z" fill="#02B9B1"/>
<path d="M16.5759 7.30232L16.1415 7.72092L14.7006 9.11111L14.3033 9.4987L13.8795 9.13694L13.71 9.00257C12.6877 8.16984 11.4085 7.69587 10.0772 7.65651C8.746 7.61716 7.43974 8.01471 6.36761 8.78552H6.33583C6.19279 8.88888 6.05507 9.00258 5.91733 9.11628L5.49354 9.47804L5.1068 9.10593L3.66589 7.71575L3.22089 7.2868L3.68707 6.87854L3.84599 6.739C5.42785 5.39887 7.43137 4.62582 9.52494 4.54779H9.91695C12.2142 4.54918 14.429 5.38359 16.1309 6.88889L16.5759 7.30232Z" fill="#02B9B1"/>
<path d="M9.87453 13.7467L10.2984 13.3385L12.6239 11.0956L13.0901 10.646L12.5604 10.2377C11.7904 9.64843 10.8313 9.34449 9.85335 9.37985C8.87948 9.37163 7.92932 9.67274 7.14633 10.2377L6.61658 10.646L7.08276 11.0956L9.40834 13.3385L9.87453 13.7467Z" fill="#02B9B1"/>
<path d="M32.5903 19.7571L32.4473 18.7752H32.3731C32.181 18.9913 31.958 19.1793 31.7109 19.3333C31.0912 19.7175 30.3684 19.9136 29.6343 19.8966C28.9828 19.9101 28.3357 19.7896 27.7351 19.543C27.1346 19.2964 26.594 18.9291 26.1485 18.4651C25.2461 17.4656 24.7482 16.1794 24.7482 14.8475C24.7482 13.5156 25.2461 12.2294 26.1485 11.23C26.594 10.766 27.1346 10.3987 27.7351 10.1521C28.3357 9.90543 28.9828 9.78494 29.6343 9.79845C30.3514 9.78042 31.0625 9.9306 31.7078 10.2364C32.3531 10.5421 32.9137 10.9945 33.3426 11.5555C33.7399 12.0896 34.0458 12.683 34.2484 13.3127H31.8698C31.7419 13.0698 31.5776 12.8469 31.3825 12.6511C31.1398 12.4254 30.8533 12.2493 30.5398 12.1331C30.2264 12.0169 29.8923 11.963 29.5572 11.9746C29.2221 11.9861 28.8927 12.0629 28.5885 12.2004C28.2842 12.3379 28.0112 12.5333 27.7854 12.7752C27.3046 13.369 27.0431 14.1037 27.0431 14.8605C27.0431 15.6172 27.3046 16.3519 27.7854 16.9457C28.0296 17.198 28.324 17.399 28.6505 17.5364C28.9771 17.6738 29.329 17.7446 29.6846 17.7446C30.0402 17.7446 30.3921 17.6738 30.7187 17.5364C31.0453 17.399 31.3397 17.198 31.5838 16.9457C31.7862 16.7074 31.9327 16.4287 32.0129 16.1292H29.7826V14.5788H34.3226V19.7829L32.5903 19.7571Z" fill="#474747"/>
<path d="M36.1238 19.7571V9.93798H40.8068C41.2502 9.92339 41.6919 9.99953 42.1034 10.1615C42.5149 10.3235 42.8871 10.5678 43.1959 10.8786C43.7948 11.5811 44.1227 12.4661 44.1227 13.3799C44.1227 14.2936 43.7948 15.1785 43.1959 15.8811C42.8887 16.1944 42.517 16.4407 42.1052 16.6037C41.6934 16.7667 41.2509 16.8428 40.8068 16.8269H38.4282V19.7778L36.1238 19.7571ZM38.4282 14.6253H40.6637C40.8191 14.6303 40.9737 14.6018 41.1165 14.542C41.2593 14.4821 41.3869 14.3924 41.4902 14.2791C41.6998 14.016 41.8136 13.6923 41.8136 13.3592C41.8136 13.026 41.6998 12.7023 41.4902 12.4393C41.3869 12.326 41.2593 12.2362 41.1165 12.1764C40.9737 12.1165 40.8191 12.0881 40.6637 12.093H38.4282V14.6253Z" fill="#474747"/>
<path d="M45.0554 16.522H47.3651C47.3563 16.7196 47.396 16.9165 47.4807 17.0962C47.5655 17.276 47.6929 17.4334 47.8524 17.5556C48.2522 17.8399 48.7414 17.9789 49.2351 17.9483C49.6882 17.9792 50.1404 17.8765 50.533 17.6537C50.666 17.574 50.7759 17.4623 50.852 17.3293C50.928 17.1963 50.9678 17.0464 50.9674 16.8941C50.968 16.7694 50.9392 16.6463 50.8832 16.5343C50.8271 16.4222 50.7454 16.3243 50.6442 16.2481C50.3062 16.035 49.9249 15.8957 49.5265 15.8398L47.9372 15.5607C47.186 15.4731 46.4828 15.1545 45.9294 14.6512C45.7013 14.4028 45.5258 14.1128 45.413 13.7979C45.3003 13.4831 45.2525 13.1495 45.2726 12.8165C45.2648 12.4043 45.3522 11.9957 45.5283 11.6208C45.7043 11.246 45.9646 10.9146 46.2897 10.6512C47.0865 10.044 48.0827 9.74093 49.0921 9.79848C50.183 9.73069 51.2609 10.0603 52.117 10.7235C52.468 11.0291 52.7451 11.4069 52.9283 11.8296C53.1116 12.2523 53.1963 12.7094 53.1765 13.168H50.872C50.8745 12.9757 50.832 12.7854 50.7475 12.6116C50.663 12.4378 50.5389 12.2852 50.3847 12.1654C50.0102 11.8821 49.5441 11.7391 49.0709 11.7623C48.672 11.7373 48.2761 11.8447 47.9478 12.0672C47.8264 12.153 47.7276 12.2656 47.6594 12.3959C47.5913 12.5262 47.5558 12.6703 47.5558 12.8165C47.5493 12.9279 47.5704 13.0392 47.6175 13.1409C47.6645 13.2425 47.736 13.3316 47.826 13.4005C48.1155 13.5808 48.4435 13.694 48.7848 13.7313L50.3741 14.0155C51.1875 14.1049 51.9541 14.4329 52.5725 14.9561C52.8131 15.2184 52.9975 15.525 53.1148 15.8578C53.2322 16.1906 53.2801 16.5429 53.2559 16.8941C53.2646 17.3121 53.1734 17.7263 52.9895 18.104C52.8056 18.4816 52.534 18.8123 52.1964 19.0698C51.3341 19.6833 50.279 19.9831 49.2139 19.9173C48.1104 19.9789 47.0229 19.6382 46.1625 18.9613C45.8012 18.6626 45.5138 18.288 45.3221 17.8655C45.1303 17.4431 45.0391 16.9837 45.0554 16.522Z" fill="#474747"/>
<path d="M57.0913 16.5219H59.3957C59.388 16.72 59.4287 16.917 59.5143 17.0967C59.6 17.2764 59.7282 17.4337 59.8884 17.5555C60.2882 17.8399 60.7773 17.9789 61.271 17.9483C61.7241 17.9785 62.1761 17.8759 62.5689 17.6537C62.7007 17.573 62.8092 17.461 62.8843 17.3281C62.9593 17.1951 62.9985 17.0458 62.998 16.8941C62.9999 16.7692 62.9716 16.6457 62.9155 16.5334C62.8594 16.4212 62.7769 16.3235 62.6749 16.2481C62.3373 16.0341 61.9558 15.8947 61.5571 15.8398L59.9678 15.5607C59.2154 15.472 58.5108 15.1537 57.9548 14.6511C57.4979 14.1475 57.2637 13.488 57.3032 12.8165C57.2955 12.4043 57.3828 11.9956 57.5589 11.6208C57.735 11.246 57.9952 10.9146 58.3203 10.6512C59.1167 10.0432 60.1133 9.73995 61.1227 9.79846C62.2136 9.73166 63.2911 10.0612 64.1476 10.7235C64.4986 11.0291 64.7757 11.4068 64.959 11.8296C65.1422 12.2523 65.2269 12.7094 65.2071 13.1679H62.9292C62.9319 12.9751 62.8888 12.7842 62.8033 12.6103C62.7179 12.4364 62.5923 12.2841 62.4365 12.1654C62.0646 11.8812 61.5998 11.738 61.128 11.7623C60.7274 11.7369 60.3297 11.8443 59.9996 12.0672C59.8789 12.1532 59.7809 12.2661 59.7136 12.3963C59.6464 12.5266 59.6119 12.6707 59.6129 12.8165C59.6067 12.9274 59.6274 13.0381 59.6735 13.1396C59.7195 13.2411 59.7895 13.3305 59.8778 13.4005C60.1677 13.58 60.4955 13.6931 60.8366 13.7313L62.4259 14.0155C63.2396 14.104 64.0065 14.432 64.6244 14.9561C64.8659 15.218 65.0512 15.5244 65.1695 15.8572C65.2877 16.19 65.3366 16.5425 65.3131 16.8941C65.3205 17.3119 65.2287 17.7257 65.0449 18.1032C64.8611 18.4806 64.5903 18.8115 64.2536 19.0698C63.3913 19.6832 62.3361 19.983 61.271 19.9173C60.1661 19.9777 59.0773 19.6372 58.2144 18.9612C57.8507 18.6636 57.5608 18.2896 57.3663 17.8671C57.1718 17.4447 57.0778 16.9848 57.0913 16.5219Z" fill="#474747"/>
<path d="M66.9023 19.7571V9.93799H73.789V11.9742H69.1749V13.8708H73.4977V15.8398H69.1749V17.7416H73.789V19.7778L66.9023 19.7571Z" fill="#474747"/>
<path d="M75.5372 19.7571V9.93796H80.305C80.7473 9.92136 81.1883 9.99508 81.5997 10.1544C82.0111 10.3137 82.3839 10.5551 82.6942 10.863C83.0075 11.191 83.2508 11.5764 83.41 11.997C83.5692 12.4175 83.641 12.8648 83.6212 13.3127C83.6616 13.8477 83.5512 14.3834 83.3019 14.8617C83.0526 15.3399 82.6739 15.7425 82.2068 16.0258C81.777 16.2672 81.301 16.4202 80.8083 16.4754L83.9073 19.7778H81.0254L78.1436 16.615H77.8522V19.7778L75.5372 19.7571ZM77.8417 14.5529H80.1461C80.301 14.5585 80.4553 14.5309 80.5981 14.472C80.7409 14.413 80.8687 14.3243 80.9725 14.2119C81.1817 13.9477 81.2952 13.6233 81.2952 13.2894C81.2952 12.9556 81.1817 12.6311 80.9725 12.3669C80.8687 12.2545 80.7409 12.1657 80.5981 12.1068C80.4553 12.0479 80.301 12.0202 80.1461 12.0258H77.8364L77.8417 14.5529Z" fill="#474747"/>
<path d="M87.356 19.7571L84.0397 9.93799H86.5614L88.8658 16.9664H89.1518L91.4563 9.93799H93.9779L90.6669 19.7571H87.356Z" fill="#474747"/>
<path d="M94.9791 19.7571V9.93799H101.892V11.9742H97.2835V13.8708H101.606V15.8398H97.2835V17.7416H101.892V19.7778L94.9791 19.7571Z" fill="#474747"/>
<path d="M103.641 19.7571V9.93796H108.408C108.851 9.92136 109.292 9.99508 109.703 10.1544C110.114 10.3137 110.487 10.5551 110.797 10.863C111.11 11.1912 111.353 11.5768 111.511 11.9974C111.669 12.418 111.74 12.8651 111.719 13.3127C111.76 13.8472 111.65 14.3823 111.401 14.8604C111.153 15.3385 110.776 15.7414 110.31 16.0258C109.88 16.2672 109.404 16.4202 108.912 16.4754L112.011 19.7778H109.129L106.247 16.615H105.956V19.7778L103.641 19.7571ZM105.945 14.5529H108.249C108.405 14.5593 108.561 14.532 108.704 14.4731C108.848 14.4141 108.977 14.3249 109.081 14.2119C109.29 13.9477 109.404 13.6233 109.404 13.2894C109.404 12.9556 109.29 12.6311 109.081 12.3669C108.977 12.2538 108.848 12.1647 108.704 12.1057C108.561 12.0467 108.405 12.0195 108.249 12.0258H105.945V14.5529Z" fill="#474747"/>
</g>
<defs>
<clipPath id="clip0_30_862">
<rect width="112" height="26" fill="white"/>
</clipPath>
</defs>
</svg>
