<svg width="105" height="44" viewBox="0 0 105 44" fill="none" xmlns="http://www.w3.org/2000/svg">
<g clip-path="url(#clip0_46_1477)">
<path d="M30.6373 18.335C30.1593 16.9747 29.496 15.6894 28.6667 14.5165L24.9438 18.3741C25.8793 19.9826 26.3695 21.8185 26.3624 23.6873C26.3677 25.2262 26.0416 26.7477 25.407 28.1448C24.7725 29.5418 23.8447 30.7807 22.6891 31.7743C21.5334 32.7679 20.1778 33.4922 18.7175 33.8962C17.2572 34.3002 15.7276 34.3742 14.2362 34.113C12.7448 33.8518 11.3277 33.2616 10.0845 32.3841C8.84132 31.5065 7.80213 30.3628 7.03998 29.0333C6.27783 27.7038 5.81118 26.2207 5.67284 24.6882C5.53449 23.1557 5.72778 21.611 6.23915 20.1626C6.46647 19.5168 6.75678 18.8958 7.10572 18.3089L3.39559 14.4643C2.5414 15.6671 1.85654 16.9853 1.36082 18.3807C0.755792 20.0935 0.447409 21.9 0.44935 23.7199C0.44935 35.8475 15.8547 44.0326 15.8547 44.0326C15.8547 44.0326 31.5745 36.0172 31.5745 23.7199C31.5713 21.8833 31.2542 20.0612 30.6373 18.335ZM8.21618 15.4369L8.85806 16.0896C9.28932 15.6663 9.7577 15.284 10.2574 14.9473L10.3087 14.9082C12.2661 13.5784 14.6132 12.9728 16.9572 13.1926C19.3013 13.4124 21.4999 14.4444 23.185 16.1157L23.8269 15.463L26.1634 13.1067L26.8694 12.4017C24.1368 9.6882 20.5174 8.09257 16.7017 7.91921C12.8861 7.74585 9.14117 9.0069 6.1814 11.4618L5.91821 11.6903L5.16078 12.3299L5.8797 13.0544L8.21618 15.4369Z" fill="#474747"/>
<path d="M16.0215 2.00135e-05C10.3446 -0.00763085 4.87683 2.17858 0.725336 6.11603L0 6.80791L0.706061 7.51938L3.01688 9.84959L3.65877 10.5023L4.34559 9.84959C7.51947 6.88135 11.6741 5.23398 15.9862 5.23398C20.2983 5.23398 24.453 6.88135 27.6268 9.84959L28.3137 10.5023L28.9555 9.84959L31.2599 7.51938L31.9724 6.80791L31.2407 6.11603C27.1128 2.19031 21.6734 0.00439296 16.0215 2.00135e-05Z" fill="#00A19A"/>
<path d="M26.8823 12.3299L26.1762 13.0349L23.8397 15.3912L23.1978 16.0439L22.511 15.4369L22.2414 15.2085C20.5846 13.7936 18.5075 12.9875 16.3449 12.92C14.1824 12.8525 12.0606 13.5276 10.3216 14.8364L10.2702 14.8756C10.0327 15.0518 9.80804 15.2411 9.58338 15.4369L8.89656 16.0439L8.25467 15.3912L5.91819 13.0349L5.16077 12.3299L5.9118 11.6381L6.17496 11.4096C8.74227 9.14098 11.9938 7.83083 15.3925 7.69562H16.0343C19.7673 7.70281 23.3642 9.12208 26.1248 11.6772L26.8823 12.3299Z" fill="#00A19A"/>
<path d="M16.0279 23.2696L16.7147 22.5777L20.489 18.7854L21.2465 18.0217L20.4184 17.3298C19.1672 16.333 17.61 15.8175 16.0215 15.8742C14.4393 15.861 12.8959 16.372 11.6246 17.3298L10.803 18.0217L11.5604 18.7854L15.3347 22.5777L16.0279 23.2696Z" fill="#00A19A"/>
<path d="M47.4612 25.541L47.2878 24.3008H47.198C46.9638 24.5723 46.6937 24.8096 46.3956 25.0058C45.6446 25.4911 44.7689 25.7387 43.8794 25.7173C43.09 25.7343 42.306 25.5821 41.5783 25.2706C40.8506 24.9591 40.1955 24.4952 39.6558 23.9092C38.5584 22.6488 37.9526 21.0236 37.9526 19.3402C37.9526 17.6567 38.5584 16.0315 39.6558 14.7711C40.1952 14.1842 40.85 13.7194 41.5777 13.4067C42.3054 13.0941 43.0896 12.9407 43.8794 12.9565C44.7484 12.9338 45.61 13.1234 46.3918 13.5096C47.1737 13.8958 47.853 14.4672 48.3726 15.1758C48.8587 15.8508 49.2317 16.6029 49.4767 17.4016H46.5946C46.4396 17.0949 46.2405 16.8133 46.0041 16.5661C45.71 16.281 45.3629 16.0585 44.9831 15.9118C44.6033 15.7651 44.1985 15.697 43.7924 15.7116C43.3864 15.7262 42.9873 15.8231 42.6187 15.9968C42.25 16.1704 41.9192 16.4173 41.6457 16.7227C41.0631 17.4728 40.7462 18.4007 40.7462 19.3565C40.7462 20.3123 41.0631 21.2402 41.6457 21.9902C41.9256 22.3118 42.2709 22.5677 42.6577 22.7401C43.0446 22.9126 43.4636 22.9974 43.8858 22.9889C44.3296 23.017 44.7738 22.9403 45.1836 22.7647C45.5934 22.5892 45.9577 22.3197 46.248 21.9772C46.4933 21.6786 46.6709 21.3287 46.7679 20.9524H44.0656V18.9942H49.5602V25.5671L47.4612 25.541Z" fill="#474747"/>
<path d="M51.7426 25.541V13.1393H57.4169C57.9546 13.118 58.4906 13.2128 58.9896 13.4176C59.4886 13.6224 59.9392 13.9324 60.3118 14.3272C61.0339 15.2163 61.4289 16.3333 61.4289 17.4864C61.4289 18.6395 61.0339 19.7566 60.3118 20.6456C59.9396 21.0413 59.4891 21.3523 58.9902 21.5582C58.4912 21.7641 57.955 21.8601 57.4169 21.8401H54.5348V25.5671L51.7426 25.541ZM54.5348 19.0595H57.2371C57.4264 19.0667 57.615 19.0312 57.7892 18.9556C57.9634 18.88 58.119 18.7661 58.2449 18.6222C58.4989 18.2899 58.6368 17.8811 58.6368 17.4603C58.6368 17.0395 58.4989 16.6307 58.2449 16.2985C58.1177 16.1562 57.9618 16.0435 57.7879 15.9681C57.614 15.8926 57.4261 15.8561 57.2371 15.8611H54.5348V19.0595Z" fill="#474747"/>
<path d="M62.5648 21.4681H65.3571C65.3477 21.7182 65.397 21.967 65.5008 22.194C65.6046 22.4209 65.7599 22.6196 65.954 22.7735C66.4384 23.1327 67.0311 23.3082 67.6293 23.2696C68.1784 23.3085 68.7262 23.1789 69.202 22.8975C69.3624 22.7959 69.4948 22.6546 69.5868 22.4868C69.6789 22.319 69.7276 22.1302 69.7283 21.938C69.7304 21.7797 69.6953 21.6231 69.6261 21.4812C69.5569 21.3394 69.4556 21.2163 69.3304 21.1221C68.9252 20.8486 68.4643 20.6723 67.9824 20.6065L66.0567 20.254C65.1465 20.1432 64.2945 19.7409 63.624 19.1052C63.3475 18.7915 63.1348 18.4252 62.9982 18.0275C62.8616 17.6298 62.8038 17.2086 62.828 16.788C62.8186 16.2674 62.9245 15.7512 63.1378 15.2778C63.3512 14.8044 63.6665 14.3859 64.0604 14.0531C65.025 13.284 66.2322 12.8988 67.456 12.9696C68.7786 12.8865 70.0846 13.3051 71.1212 14.1445C71.5465 14.5304 71.8823 15.0076 72.1043 15.5415C72.3263 16.0754 72.429 16.6527 72.405 17.2319H69.6128C69.616 16.9883 69.5638 16.7473 69.4603 16.5276C69.3567 16.3079 69.2046 16.1156 69.0158 15.9656C68.5652 15.6067 68.002 15.4258 67.4304 15.4565C66.9469 15.4243 66.4671 15.5601 66.0696 15.8416C65.9224 15.9499 65.8027 16.0922 65.7201 16.2567C65.6376 16.4212 65.5945 16.6033 65.5946 16.788C65.5867 16.9287 65.6123 17.0692 65.6693 17.1976C65.7263 17.3261 65.813 17.4386 65.9219 17.5256C66.2722 17.7544 66.6699 17.8974 67.0837 17.9434L69.0094 18.3023C69.9946 18.4169 70.923 18.8309 71.6732 19.4903C71.9647 19.8216 72.1881 20.2088 72.3303 20.6291C72.4725 21.0495 72.5306 21.4945 72.5013 21.938C72.5118 22.466 72.4012 22.9892 72.1784 23.4661C71.9556 23.9431 71.6266 24.3607 71.2175 24.686C70.1727 25.4608 68.8942 25.8395 67.6037 25.7564C66.2652 25.8296 64.947 25.3999 63.9 24.5489C63.464 24.1705 63.1176 23.6969 62.8864 23.1635C62.6552 22.6301 62.5453 22.0506 62.5648 21.4681Z" fill="#474747"/>
<path d="M38.4683 36.4284H41.2605C41.2502 36.6787 41.299 36.9278 41.4028 37.155C41.5067 37.3821 41.6626 37.5806 41.8575 37.7338C42.3411 38.0953 42.9338 38.2732 43.5329 38.2364C44.0827 38.2759 44.6314 38.1438 45.1055 37.8579C45.2646 37.757 45.3958 37.6166 45.4868 37.4498C45.5777 37.2831 45.6255 37.0956 45.6254 36.9049C45.6287 36.7461 45.5949 36.5888 45.5268 36.4458C45.4588 36.3029 45.3584 36.1783 45.2338 36.0825C44.8255 35.812 44.3627 35.638 43.8795 35.5733L41.9538 35.2143C41.045 35.1028 40.1939 34.7032 39.5211 34.0721C39.2452 33.758 39.0329 33.3916 38.8963 32.9941C38.7597 32.5965 38.7016 32.1754 38.7251 31.7549C38.7143 31.234 38.8196 30.7174 39.033 30.2438C39.2464 29.7702 39.5625 29.3518 39.9575 29.02C40.9201 28.2471 42.1288 27.8614 43.3531 27.9365C44.6746 27.854 45.9796 28.27 47.0183 29.1049C47.4445 29.4915 47.7808 29.9697 48.0028 30.5048C48.2249 31.0399 48.3271 31.6185 48.3021 32.1988H45.5099C45.5131 31.9542 45.461 31.7122 45.3575 31.4915C45.254 31.2708 45.1018 31.0773 44.9129 30.926C44.4614 30.5693 43.8983 30.3908 43.3274 30.4234C42.8447 30.3883 42.3646 30.5218 41.9666 30.8019C41.819 30.9113 41.699 31.0547 41.6164 31.2204C41.5339 31.386 41.4911 31.5692 41.4917 31.7549C41.4841 31.8939 41.5092 32.0328 41.565 32.16C41.6209 32.2871 41.7057 32.3989 41.8126 32.486C42.1639 32.7127 42.5611 32.8555 42.9744 32.9037L44.9001 33.2627C45.8839 33.3753 46.8107 33.7896 47.5575 34.4507C47.8518 34.7816 48.0774 35.1695 48.2208 35.5913C48.3642 36.013 48.4224 36.4598 48.3919 36.9049C48.4 37.4315 48.2883 37.9529 48.0656 38.4284C47.8429 38.9039 47.5153 39.3207 47.1082 39.6463C46.0648 40.4242 44.7853 40.8032 43.4943 40.7168C42.1555 40.7931 40.8362 40.363 39.7906 39.5093C39.357 39.1295 39.013 38.6555 38.7841 38.1221C38.5552 37.5888 38.4473 37.0099 38.4683 36.4284Z" fill="#474747"/>
<path d="M50.3433 40.5079V28.1062H58.7263V30.6779H53.1355V33.0799H58.3733V35.5668H53.1355V37.9623H58.7263V40.534L50.3433 40.5079Z" fill="#474747"/>
<path d="M60.8188 40.5079V28.1062H66.5958C67.1318 28.0853 67.6661 28.1784 68.1646 28.3796C68.6631 28.5808 69.1148 28.8856 69.4908 29.2746C69.8716 29.6879 70.1672 30.1746 70.3602 30.706C70.5531 31.2374 70.6394 31.8027 70.6141 32.3685C70.663 33.0443 70.5292 33.7209 70.2271 34.3249C69.925 34.929 69.4661 35.4374 68.9002 35.7953C68.3794 36.1002 67.8027 36.2935 67.2056 36.3632L70.9607 40.5341H67.4688L63.9769 36.5394H63.6239V40.5341L60.8188 40.5079ZM63.611 33.9416H66.4097C66.5979 33.9478 66.7852 33.9119 66.9583 33.8363C67.1313 33.7607 67.2859 33.6474 67.411 33.5042C67.6651 33.172 67.8029 32.7632 67.8029 32.3424C67.8029 31.9216 67.6651 31.5128 67.411 31.1806C67.2859 31.0374 67.1313 30.9241 66.9583 30.8485C66.7852 30.7729 66.5979 30.737 66.4097 30.7432H63.611V33.9416Z" fill="#474747"/>
<path d="M75.1394 40.5079L71.1212 28.1062H74.1765L76.9752 36.9832H77.3218L80.114 28.1062H83.1694L79.1576 40.5079H75.1394Z" fill="#474747"/>
<path d="M84.3954 40.5079V28.1062H92.7784V30.6779H87.1876V33.0799H92.4254V35.5668H87.1876V37.9623H92.7784V40.534L84.3954 40.5079Z" fill="#474747"/>
<path d="M94.871 40.5079V28.1062H100.648C101.184 28.0853 101.718 28.1784 102.217 28.3796C102.715 28.5808 103.167 28.8856 103.543 29.2746C103.922 29.6891 104.216 30.1761 104.407 30.7073C104.599 31.2385 104.685 31.8032 104.66 32.3685C104.71 33.0438 104.578 33.7202 104.277 34.3243C103.976 34.9284 103.518 35.4372 102.952 35.7953C102.432 36.1002 101.855 36.2935 101.258 36.3632L105.013 40.5341H101.521L98.029 36.5394H97.676V40.5341L94.871 40.5079ZM97.6632 33.9416H100.455C100.645 33.9488 100.833 33.9133 101.007 33.8377C101.182 33.7621 101.337 33.6482 101.463 33.5042C101.717 33.172 101.855 32.7632 101.855 32.3424C101.855 31.9216 101.717 31.5128 101.463 31.1806C101.337 31.0366 101.182 30.9227 101.007 30.8471C100.833 30.7715 100.645 30.736 100.455 30.7432H97.6632V33.9416Z" fill="#474747"/>
</g>
<defs>
<clipPath id="clip0_46_1477">
<rect width="105" height="44" fill="white"/>
</clipPath>
</defs>
</svg>
