<svg width="20" height="14" viewBox="0 0 20 14" fill="none" xmlns="http://www.w3.org/2000/svg">
<path d="M13.334 0.333313C13.555 0.333313 13.767 0.421111 13.9232 0.577391C14.0795 0.733671 14.1673 0.945633 14.1673 1.16665V4.66665L18.5115 1.62498C18.5739 1.58119 18.6472 1.55539 18.7234 1.5504C18.7995 1.5454 18.8755 1.5614 18.9432 1.59664C19.0108 1.63189 19.0675 1.68503 19.107 1.75027C19.1465 1.81552 19.1674 1.89036 19.1673 1.96665V12.0333C19.1674 12.1096 19.1465 12.1844 19.107 12.2497C19.0675 12.3149 19.0108 12.3681 18.9432 12.4033C18.8755 12.4386 18.7995 12.4546 18.7234 12.4496C18.6472 12.4446 18.5739 12.4188 18.5115 12.375L14.1673 9.33331V12.8333C14.1673 13.0543 14.0795 13.2663 13.9232 13.4226C13.767 13.5788 13.555 13.6666 13.334 13.6666H1.66732C1.4463 13.6666 1.23434 13.5788 1.07806 13.4226C0.921782 13.2663 0.833984 13.0543 0.833984 12.8333V1.16665C0.833984 0.945633 0.921782 0.733671 1.07806 0.577391C1.23434 0.421111 1.4463 0.333313 1.66732 0.333313H13.334ZM12.5007 1.99998H2.50065V12H12.5007V1.99998ZM6.16732 4.35748C6.23074 4.35731 6.29289 4.37523 6.34648 4.40915L9.97565 6.71915C10.0228 6.74929 10.0616 6.79081 10.0885 6.83989C10.1153 6.88897 10.1294 6.94403 10.1294 6.99998C10.1294 7.05593 10.1153 7.11099 10.0885 7.16007C10.0616 7.20915 10.0228 7.25067 9.97565 7.28081L6.34648 9.59165C6.29594 9.62387 6.23764 9.64186 6.17772 9.64373C6.11781 9.64561 6.05849 9.63129 6.00603 9.60228C5.95357 9.57328 5.9099 9.53067 5.87963 9.47893C5.84935 9.4272 5.83358 9.36826 5.83398 9.30831V4.69165C5.83398 4.50748 5.98398 4.35831 6.16732 4.35831V4.35748ZM17.5007 4.36665L14.1673 6.69998V7.29831L17.5007 9.63165V4.36665Z" fill="#02B9B1"/>
</svg>
