<svg width="14" height="17" viewBox="0 0 14 17" fill="none" xmlns="http://www.w3.org/2000/svg">
<path d="M11.773 12.023L7 16.796L2.227 12.023C1.28301 11.079 0.64014 9.87626 0.379696 8.56689C0.119253 7.25752 0.25293 5.90032 0.763824 4.66693C1.27472 3.43353 2.13988 2.37933 3.24991 1.63764C4.35994 0.895939 5.66498 0.500061 7 0.500061C8.33502 0.500061 9.64006 0.895939 10.7501 1.63764C11.8601 2.37933 12.7253 3.43353 13.2362 4.66693C13.7471 5.90032 13.8808 7.25752 13.6203 8.56689C13.3599 9.87626 12.717 11.079 11.773 12.023ZM7 10.25C7.79565 10.25 8.55871 9.93393 9.12132 9.37132C9.68393 8.80871 10 8.04565 10 7.25C10 6.45435 9.68393 5.69129 9.12132 5.12868C8.55871 4.56607 7.79565 4.25 7 4.25C6.20435 4.25 5.44129 4.56607 4.87868 5.12868C4.31607 5.69129 4 6.45435 4 7.25C4 8.04565 4.31607 8.80871 4.87868 9.37132C5.44129 9.93393 6.20435 10.25 7 10.25ZM7 8.75C6.60218 8.75 6.22065 8.59197 5.93934 8.31066C5.65804 8.02936 5.5 7.64783 5.5 7.25C5.5 6.85218 5.65804 6.47065 5.93934 6.18934C6.22065 5.90804 6.60218 5.75 7 5.75C7.39783 5.75 7.77936 5.90804 8.06066 6.18934C8.34197 6.47065 8.5 6.85218 8.5 7.25C8.5 7.64783 8.34197 8.02936 8.06066 8.31066C7.77936 8.59197 7.39783 8.75 7 8.75Z" fill="white"/>
</svg>
