<svg width="32" height="45" viewBox="0 0 32 45" fill="none" xmlns="http://www.w3.org/2000/svg">
<path d="M30.6372 18.335C30.1592 16.9747 29.4958 15.6894 28.6666 14.5165L24.9436 18.3741C25.8792 19.9826 26.3693 21.8185 26.3622 23.6873C26.3676 25.2262 26.0415 26.7477 25.4069 28.1448C24.7723 29.5418 23.8446 30.7807 22.6889 31.7743C21.5333 32.7679 20.1777 33.4922 18.7174 33.8962C17.2571 34.3002 15.7275 34.3742 14.2361 34.113C12.7447 33.8518 11.3276 33.2616 10.0844 32.3841C8.84119 31.5065 7.80201 30.3628 7.03986 29.0333C6.27771 27.7038 5.81106 26.2207 5.67272 24.6882C5.53437 23.1557 5.72766 21.611 6.23903 20.1626C6.46634 19.5168 6.75666 18.8958 7.1056 18.3089L3.39547 14.4643C2.54128 15.6671 1.85641 16.9853 1.3607 18.3807C0.75567 20.0935 0.447286 21.9 0.449228 23.7199C0.449228 35.8475 15.8545 44.0326 15.8545 44.0326C15.8545 44.0326 31.5744 36.0172 31.5744 23.7199C31.5712 21.8833 31.2541 20.0612 30.6372 18.335ZM8.21605 15.4369L8.85794 16.0896C9.2892 15.6663 9.75758 15.284 10.2573 14.9473L10.3086 14.9082C12.2659 13.5784 14.6131 12.9728 16.9571 13.1926C19.3011 13.4124 21.4997 14.4444 23.1849 16.1157L23.8268 15.463L26.1633 13.1067L26.8693 12.4017C24.1366 9.6882 20.5173 8.09257 16.7016 7.91921C12.8859 7.74585 9.14105 9.0069 6.18128 11.4618L5.91809 11.6903L5.16066 12.3299L5.87957 13.0544L8.21605 15.4369Z" fill="#474747"/>
<path d="M16.0215 -1.05041e-05C10.3446 -0.00766137 4.87683 2.17855 0.725336 6.116L0 6.80788L0.706061 7.51935L3.01688 9.84956L3.65877 10.5023L4.34559 9.84956C7.51947 6.88132 11.6741 5.23395 15.9862 5.23395C20.2983 5.23395 24.453 6.88132 27.6268 9.84956L28.3137 10.5023L28.9555 9.84956L31.2599 7.51935L31.9724 6.80788L31.2407 6.116C27.1128 2.19028 21.6734 0.00436244 16.0215 -1.05041e-05Z" fill="#00A19A"/>
<path d="M26.8821 12.3299L26.176 13.0349L23.8396 15.3912L23.1977 16.0439L22.5109 15.4369L22.2413 15.2084C20.5845 13.7936 18.5073 12.9874 16.3448 12.9199C14.1823 12.8524 12.0605 13.5275 10.3214 14.8364L10.2701 14.8755C10.0326 15.0518 9.80792 15.2411 9.58326 15.4369L8.89644 16.0439L8.25455 15.3912L5.91807 13.0349L5.16064 12.3299L5.91168 11.638L6.17484 11.4096C8.74215 9.14094 11.9937 7.8308 15.3923 7.69559H16.0342C19.7672 7.70278 23.364 9.12205 26.1247 11.6772L26.8821 12.3299Z" fill="#00A19A"/>
<path d="M16.0279 23.2695L16.7147 22.5776L20.489 18.7853L21.2465 18.0216L20.4184 17.3298C19.1672 16.333 17.61 15.8175 16.0215 15.8742C14.4393 15.861 12.8959 16.3719 11.6246 17.3298L10.803 18.0216L11.5604 18.7853L15.3347 22.5776L16.0279 23.2695Z" fill="#00A19A"/>
</svg>
