<svg width="14" height="15" viewBox="0 0 14 15" fill="none" xmlns="http://www.w3.org/2000/svg">
<g clip-path="url(#clip0_570_8462)">
<path d="M11.667 9.91669H12.8337V11.0834H1.16699V9.91669H2.33366V5.83335C2.33366 4.59568 2.82532 3.40869 3.70049 2.53352C4.57566 1.65835 5.76265 1.16669 7.00033 1.16669C8.238 1.16669 9.42499 1.65835 10.3002 2.53352C11.1753 3.40869 11.667 4.59568 11.667 5.83335V9.91669ZM5.25033 12.25H8.75033V13.4167H5.25033V12.25Z" fill="#EB2E2E"/>
</g>
<path fill-rule="evenodd" clip-rule="evenodd" d="M2.11963 13.2794L10.5477 0.203966L11.8506 1.04376L3.4225 14.1192L2.11963 13.2794Z" fill="#B7B7B7"/>
<path fill-rule="evenodd" clip-rule="evenodd" d="M3.02196 14.2002L11.9876 0.290742L12.8281 0.83252L3.86249 14.7419L3.02196 14.2002Z" fill="white"/>
<defs>
<clipPath id="clip0_570_8462">
<rect width="14" height="14" fill="white"/>
</clipPath>
</defs>
</svg>
