<svg width="14" height="13" viewBox="0 0 14 13" fill="none" xmlns="http://www.w3.org/2000/svg">
<path d="M7 10.5C7.4165 10.5 7.79917 10.6459 8.10017 10.8885L7 12.25L5.89983 10.8885C6.21101 10.6365 6.59953 10.4993 7 10.5ZM1.638 0.812622L11.9496 11.1248L11.1247 11.9496L8.97692 9.80296L8.83283 9.98146C8.31445 9.56135 7.66724 9.3325 7 9.33337C6.33303 9.33247 5.68606 9.5611 5.16775 9.98087L4.06817 8.61937C4.8347 7.9984 5.77902 7.63758 6.76433 7.58921L5.73008 6.55554C4.85306 6.75061 4.0332 7.14636 3.33492 7.71171L2.23417 6.35079C2.86289 5.84167 3.56911 5.43656 4.326 5.15087L3.43292 4.25837C2.74069 4.56795 2.09164 4.96621 1.50208 5.44312L0.401917 4.08162C0.935667 3.64996 1.512 3.27021 2.12392 2.94879L0.812583 1.63804L1.638 0.812622ZM9.38233 6.92421L7.126 4.66846L7 4.66671C8.80542 4.66671 10.4633 5.29729 11.7658 6.35079L10.6657 7.71229C10.2738 7.39504 9.8424 7.12994 9.38233 6.92362V6.92421ZM7 1.75004C9.49958 1.75004 11.795 2.62329 13.5975 4.08162L12.4985 5.44254C10.9432 4.18272 9.00154 3.49678 7 3.50004C6.66633 3.50004 6.33733 3.51871 6.01417 3.55487L4.50508 2.04812C5.30483 1.85329 6.14075 1.75004 7 1.75004Z" fill="#fb6060"/>
</svg>
