<svg width="21" height="20" viewBox="0 0 21 20" fill="none" xmlns="http://www.w3.org/2000/svg">
<path d="M16.1652 14.6779H8.79239C8.90299 13.7492 9.0118 12.8353 9.12328 11.8981C9.84636 13.0238 11.1446 13.4622 11.8712 12.8456C10.513 12.019 10.5241 10.1642 11.865 9.34296C11.3729 8.84189 10.2594 9.05414 9.37512 9.84538C9.41642 9.48267 9.45284 9.15669 9.49148 8.83159C9.50181 8.74297 9.51664 8.65493 9.5359 8.56784C9.70867 7.8066 10.1133 7.46224 10.9905 7.33373C11.8527 7.19855 12.7315 7.21097 13.5896 7.37045C13.63 7.37851 13.6736 7.37045 13.758 7.31941C13.6136 7.16984 13.4835 7.00192 13.3214 6.87474C12.9807 6.60607 12.5703 6.49547 12.1515 6.44129C11.2907 6.32979 10.426 6.31008 9.57276 6.48606C8.44951 6.71981 8.0258 7.2473 7.90366 8.42007C7.79129 9.49924 7.64738 10.5748 7.51902 11.6522C7.40917 12.5747 7.30021 13.4973 7.19213 14.42C7.18236 14.5006 7.16326 14.5803 7.14772 14.6726H5.77441C5.81883 14.2861 5.86013 13.9113 5.90455 13.537C6.03157 12.4744 6.15594 11.4113 6.28785 10.3496C6.39844 9.45715 6.48505 8.56068 6.64317 7.67629C6.87501 6.3674 7.6727 5.53586 8.94118 5.21031C10.2984 4.85316 11.7248 4.86041 13.0784 5.23136C14.4109 5.59631 15.157 6.51965 15.3498 7.8769C15.5408 9.2234 15.6833 10.5766 15.8463 11.9267C15.9512 12.7972 16.0548 13.6679 16.1572 14.5387C16.1617 14.5767 16.1617 14.6143 16.1652 14.6779Z" fill="white"/>
<path d="M10.9923 15.555C12.8826 15.555 14.7734 15.5662 16.6637 15.5474C17.1651 15.5424 17.5759 15.8711 17.5653 16.4653C17.5546 17.0595 17.5653 17.6564 17.5622 18.252C17.5591 18.8476 17.2415 19.1579 16.6539 19.1579C12.8875 19.1579 9.12116 19.1512 5.35523 19.1659C4.74764 19.1682 4.36168 18.8077 4.38477 18.175C4.40565 17.6023 4.38699 17.0286 4.3901 16.455C4.39277 15.8729 4.70323 15.5559 5.27618 15.5554C7.18157 15.553 9.08696 15.5529 10.9923 15.555Z" fill="white"/>
<path d="M18.1625 9.10299C17.745 9.10926 17.4847 8.91358 17.4208 8.61491C17.3901 8.46364 17.4159 8.3063 17.4932 8.17302C17.5705 8.03974 17.6938 7.93989 17.8396 7.89262C18.528 7.64991 19.2165 7.41259 19.9125 7.18824C20.3801 7.03689 20.8785 7.33019 20.9784 7.79366C21.0877 8.30324 20.7777 8.76491 20.2678 8.83387C19.5358 8.93283 18.8043 9.02149 18.1625 9.10299Z" fill="white"/>
<path d="M5.84863 0.895484C5.88328 0.485757 6.14044 0.166036 6.53706 0.0679701C6.89726 -0.0215878 7.31832 0.155289 7.45911 0.51576C7.74381 1.24028 8.00586 1.97421 8.2528 2.71262C8.29995 2.85646 8.29129 3.01297 8.22858 3.15064C8.16586 3.28831 8.05375 3.39693 7.91481 3.45461C7.62034 3.58447 7.31121 3.49133 7.12778 3.19623C6.74803 2.585 6.37273 1.97019 6.00764 1.35C5.92858 1.21297 5.9006 1.04549 5.84863 0.895484Z" fill="white"/>
<path d="M16.0981 0.919271C16.047 1.06391 16.0172 1.22109 15.9413 1.35005C15.5789 1.96352 15.2088 2.57237 14.8309 3.17659C14.6315 3.4972 14.3211 3.58989 14.0128 3.44078C13.7259 3.30151 13.5935 2.98045 13.7103 2.64461C13.9472 1.958 14.1931 1.27378 14.4481 0.591945C14.5171 0.40474 14.65 0.24843 14.8229 0.151032C14.9959 0.0536344 15.1976 0.0215082 15.3919 0.060414C15.8005 0.149972 16.0697 0.486707 16.0981 0.919271Z" fill="white"/>
<path d="M3.77939 9.10218C3.09496 9.01576 2.33902 8.93785 1.58974 8.81829C1.12916 8.74485 0.856012 8.23617 0.97682 7.76733C1.08919 7.33118 1.55999 7.03966 1.99836 7.17714C2.71521 7.40103 3.42496 7.65179 4.13293 7.90435C4.2751 7.95299 4.3941 8.05345 4.46658 8.18601C4.53906 8.31856 4.55978 8.47364 4.52467 8.62081C4.45049 8.93247 4.19866 9.11338 3.77939 9.10218Z" fill="white"/>
</svg>
