<svg width="42" height="42" viewBox="0 0 42 42" fill="none" xmlns="http://www.w3.org/2000/svg">
<g clip-path="url(#clip0_820_9490)">
<path d="M32.137 30.387L21 41.524L9.86301 30.387C7.66035 28.1843 6.16033 25.3779 5.55262 22.3227C4.94492 19.2675 5.25684 16.1007 6.44892 13.2228C7.64101 10.3449 9.65973 7.88509 12.2498 6.15446C14.8399 4.42384 17.885 3.50012 21 3.50012C24.1151 3.50012 27.1601 4.42384 29.7502 6.15446C32.3403 7.88509 34.359 10.3449 35.5511 13.2228C36.7432 16.1007 37.0551 19.2675 36.4474 22.3227C35.8397 25.3779 34.3397 28.1843 32.137 30.387V30.387ZM21 22.75C21.9283 22.75 22.8185 22.3812 23.4749 21.7249C24.1313 21.0685 24.5 20.1782 24.5 19.25C24.5 18.3217 24.1313 17.4315 23.4749 16.7751C22.8185 16.1187 21.9283 15.75 21 15.75C20.0717 15.75 19.1815 16.1187 18.5251 16.7751C17.8688 17.4315 17.5 18.3217 17.5 19.25C17.5 20.1782 17.8688 21.0685 18.5251 21.7249C19.1815 22.3812 20.0717 22.75 21 22.75Z" fill="#B7B7B7"/>
<circle cx="21" cy="19" r="11" fill="white"/>
<path fill-rule="evenodd" clip-rule="evenodd" d="M16.4 13.4C15.8477 13.4 15.4 13.8477 15.4 14.4V23.6C15.4 24.1523 15.8477 24.6 16.4 24.6H25.6C26.1523 24.6 26.6 24.1523 26.6 23.6V14.4C26.6 13.8477 26.1523 13.4 25.6 13.4H16.4ZM21.6111 22.3911C21.6813 22.4656 21.7692 22.5001 21.8713 22.5001C22.0377 22.5005 22.1698 22.401 22.2145 22.2417L23.1284 18.9864C23.3476 18.207 23.5664 17.4275 23.7849 16.6479C23.8225 16.5136 23.7903 16.3959 23.6895 16.3001C23.5844 16.2002 23.4622 16.1793 23.3225 16.2187C22.4526 16.4621 21.5826 16.7059 20.7123 16.9498C19.8577 17.1898 19.0032 17.43 18.1488 17.6706C18.1189 17.679 18.0891 17.6873 18.0592 17.6956C17.9425 17.7282 17.8257 17.7607 17.7108 17.7989C17.5878 17.8397 17.5016 17.9666 17.5001 18.097C17.4985 18.2461 17.5467 18.3713 17.6906 18.438C18.5584 18.8398 19.4265 19.2409 20.295 19.6414C20.3221 19.653 20.3436 19.6747 20.355 19.7019C20.757 20.575 21.1596 21.4478 21.5629 22.3206C21.5752 22.3465 21.5915 22.3703 21.6111 22.3911Z" fill="#B7B7B7"/>
</g>
<defs>
<clipPath id="clip0_820_9490">
<rect width="42" height="42" fill="white"/>
</clipPath>
</defs>
</svg>
