<svg width="20" height="20" viewBox="0 0 20 20" fill="none" xmlns="http://www.w3.org/2000/svg">
<path fill-rule="evenodd" clip-rule="evenodd" d="M3.70565 6.00728C3.93791 6.09107 4.18254 6.1362 4.42964 6.14085C4.70659 6.14647 4.98222 6.10156 5.24278 6.00835C5.29961 5.98835 5.35557 5.96534 5.41023 5.94103C5.85666 5.73999 6.22574 5.40144 6.4626 4.97572C6.65521 4.63027 6.75248 4.24053 6.74457 3.84587C6.72288 2.64138 5.73102 1.65886 4.5164 1.6365C4.2109 1.63077 3.90737 1.68622 3.62398 1.79953C3.34059 1.91284 3.08317 2.08167 2.86711 2.29593C2.65104 2.51019 2.48079 2.76547 2.36653 3.0465C2.25227 3.32752 2.19635 3.62852 2.20213 3.93147C2.21926 4.88366 2.84349 5.69798 3.70565 6.00728ZM18.9988 10.1322C18.9988 9.91563 18.8498 9.76894 18.6301 9.76873H17.3473L17.3386 9.74697C17.3326 9.73228 17.3271 9.71884 17.322 9.7042C16.8371 8.42185 16.3524 7.13943 15.8679 5.85694C15.6538 5.29105 15.1465 4.94347 14.5377 4.94347H7.65862C7.49731 5.42143 7.2281 5.85656 6.87151 6.21571L6.84656 6.24087C6.81866 6.26869 6.79031 6.29579 6.76154 6.32217H7.06693H8.35746H14.7355C14.8253 6.32217 14.8255 6.32217 14.8533 6.40498L15.905 9.53536C16.0625 10.0049 15.7339 10.4568 15.2352 10.4568H8.17483L8.22233 11.347V11.3834C8.22036 11.6387 8.16116 11.8904 8.04903 12.1203C7.86763 12.4877 7.56 12.7789 7.18145 12.9415L7.21528 12.9583C7.29922 12.9998 7.38034 13.0473 7.45994 13.0966C7.5091 13.1281 7.55599 13.1629 7.60027 13.2009C7.61777 13.2152 7.63546 13.2294 7.65318 13.2436L7.6532 13.2436C7.71521 13.2933 7.77743 13.3432 7.83192 13.4003C7.88277 13.4535 7.92989 13.5101 7.97704 13.5667L7.97704 13.5667C8.02159 13.6202 8.06615 13.6737 8.11388 13.7244C8.18986 13.8051 8.24236 13.8996 8.29495 13.9943C8.31038 14.0221 8.32581 14.0499 8.34184 14.0774C8.37296 14.1291 8.38972 14.1881 8.39042 14.2483C8.39111 14.3085 8.37572 14.3679 8.34581 14.4203C8.31589 14.4727 8.27252 14.5164 8.22009 14.5468C8.16766 14.5772 8.10804 14.5934 8.0473 14.5936C7.9426 14.5949 7.83781 14.5944 7.73305 14.594L7.73233 14.594C7.6802 14.5938 7.62808 14.5936 7.57598 14.5936H7.05044L7.03468 14.7952L7.03461 14.7962C7.00314 15.1988 6.97114 15.6083 6.942 15.9759H15.5213V16.6427C15.5213 17.0533 15.825 17.3525 16.2401 17.3542H16.8849C16.9373 17.3547 16.9896 17.3503 17.0411 17.3409C17.3851 17.2703 17.6076 16.9967 17.6076 16.6472C17.6076 14.951 17.6073 13.2549 17.6065 11.5587C17.6065 11.5075 17.6215 11.4888 17.6716 11.477C17.9451 11.4124 18.2184 11.3453 18.4904 11.2739C18.7624 11.2025 18.9675 10.9711 18.9908 10.6953C19.0016 10.5585 19.0005 10.4204 18.9994 10.2824V10.2823V10.2823C18.999 10.2323 18.9986 10.1822 18.9988 10.1322ZM16.2151 12.5973V13.8866C16.2151 14.2952 15.9115 14.5942 15.4994 14.5942H13.2892C12.9877 14.5942 12.8294 14.3195 12.9756 14.0576C13.35 13.3856 13.9254 12.9658 14.6537 12.7387C15.1454 12.5855 15.6514 12.5307 16.165 12.5298C16.1741 12.5298 16.1831 12.5306 16.1941 12.5316L16.2147 12.5332L16.2151 12.5973ZM7.13804 11.3759V11.3838C7.13804 11.4427 7.12068 11.8374 6.66889 11.9873C6.66847 11.9872 6.66801 11.9872 6.66759 11.9873C6.66495 11.989 6.65903 11.992 6.6504 11.9965C6.5576 12.0443 6.15072 12.2539 6.12036 12.6038C6.1041 12.7963 6.03642 13.6566 5.96311 14.5936C5.9377 14.9148 5.91187 15.245 5.88719 15.5605C5.87607 15.7027 5.86518 15.8419 5.85467 15.9759C5.84243 16.1346 5.83064 16.2859 5.8197 16.4264C5.81202 16.525 5.80476 16.6182 5.79806 16.7049C5.78413 16.8831 5.70291 17.0495 5.57062 17.1709C5.43833 17.2923 5.26472 17.3598 5.08447 17.3598H3.95249C3.77235 17.3598 3.59882 17.2924 3.46655 17.1712C3.33428 17.0499 3.25299 16.8836 3.23891 16.7055L2.91356 12.6064C2.88515 12.2551 2.47457 12.0121 2.44876 11.997C2.44851 11.9969 2.44825 11.9969 2.44799 11.9969C2.44781 11.9969 2.44763 11.997 2.44746 11.997L2.42902 11.9912C2.17764 11.9035 2 11.6737 2 11.4073V11.3759L2.18089 7.99684C2.208 7.48514 2.65351 7.08272 3.19336 7.08272H5.94511C6.03721 7.08256 6.12894 7.09435 6.21797 7.11777C6.62855 7.22618 6.93589 7.57419 6.95888 7.99684L7.08902 10.4572L7.13804 11.3759Z" fill="#02B9B1"/>
</svg>
