<svg width="42" height="42" viewBox="0 0 42 42" fill="none" xmlns="http://www.w3.org/2000/svg">
<path d="M32.137 30.387L21 41.524L9.86301 30.387C7.66035 28.1843 6.16033 25.3779 5.55262 22.3227C4.94492 19.2675 5.25684 16.1008 6.44892 13.2228C7.64101 10.3449 9.65973 7.8851 12.2498 6.15448C14.8399 4.42385 17.885 3.50014 21 3.50014C24.1151 3.50014 27.1601 4.42385 29.7502 6.15448C32.3403 7.8851 34.359 10.3449 35.5511 13.2228C36.7432 16.1008 37.0551 19.2675 36.4474 22.3227C35.8397 25.3779 34.3397 28.1843 32.137 30.387V30.387ZM21 22.75C21.9283 22.75 22.8185 22.3813 23.4749 21.7249C24.1313 21.0685 24.5 20.1783 24.5 19.25C24.5 18.3217 24.1313 17.4315 23.4749 16.7751C22.8185 16.1188 21.9283 15.75 21 15.75C20.0717 15.75 19.1815 16.1188 18.5251 16.7751C17.8688 17.4315 17.5 18.3217 17.5 19.25C17.5 20.1783 17.8688 21.0685 18.5251 21.7249C19.1815 22.3813 20.0717 22.75 21 22.75Z" fill="#B7B7B7"/>
<circle cx="21" cy="19" r="11" fill="white"/>
<g clip-path="url(#clip0_820_9494)">
<path d="M25.6667 24.8333H16.3334V23.6667C16.3334 22.8931 16.6407 22.1513 17.1876 21.6043C17.7346 21.0573 18.4765 20.75 19.25 20.75H22.75C23.5236 20.75 24.2655 21.0573 24.8124 21.6043C25.3594 22.1513 25.6667 22.8931 25.6667 23.6667V24.8333ZM21 19.5833C20.5404 19.5833 20.0853 19.4928 19.6606 19.3169C19.236 19.141 18.8502 18.8832 18.5252 18.5582C18.2002 18.2332 17.9424 17.8474 17.7665 17.4227C17.5906 16.9981 17.5 16.543 17.5 16.0833C17.5 15.6237 17.5906 15.1686 17.7665 14.744C17.9424 14.3193 18.2002 13.9335 18.5252 13.6085C18.8502 13.2835 19.236 13.0257 19.6606 12.8498C20.0853 12.6739 20.5404 12.5833 21 12.5833C21.9283 12.5833 22.8185 12.9521 23.4749 13.6085C24.1313 14.2648 24.5 15.1551 24.5 16.0833C24.5 17.0116 24.1313 17.9018 23.4749 18.5582C22.8185 19.2146 21.9283 19.5833 21 19.5833V19.5833Z" fill="#B7B7B7"/>
</g>
<defs>
<clipPath id="clip0_820_9494">
<rect width="14" height="14" fill="white" transform="translate(14 12)"/>
</clipPath>
</defs>
</svg>
