<svg width="14" height="19" viewBox="0 0 14 19" fill="none" xmlns="http://www.w3.org/2000/svg">
<path d="M13.6667 18.3333H0.333374V16.6667C0.333374 15.5616 0.772361 14.5018 1.55376 13.7204C2.33516 12.939 3.39497 12.5 4.50004 12.5H9.50004C10.6051 12.5 11.6649 12.939 12.4463 13.7204C13.2277 14.5018 13.6667 15.5616 13.6667 16.6667V18.3333ZM7.00004 10.8333C6.34343 10.8333 5.69325 10.704 5.08662 10.4527C4.48 10.2015 3.9288 9.83315 3.46451 9.36886C3.00021 8.90457 2.63192 8.35337 2.38064 7.74675C2.12937 7.14012 2.00004 6.48994 2.00004 5.83333C2.00004 5.17672 2.12937 4.52654 2.38064 3.91991C2.63192 3.31328 3.00021 2.76209 3.46451 2.29779C3.9288 1.8335 4.48 1.4652 5.08662 1.21393C5.69325 0.962657 6.34343 0.833328 7.00004 0.833328C8.32612 0.833328 9.59789 1.36011 10.5356 2.29779C11.4733 3.23548 12 4.50725 12 5.83333C12 7.15941 11.4733 8.43118 10.5356 9.36886C9.59789 10.3065 8.32612 10.8333 7.00004 10.8333Z" fill="black"/>
</svg>
