<svg width="18" height="18" viewBox="0 0 18 18" fill="none" xmlns="http://www.w3.org/2000/svg">
<path d="M9 17.3334C4.39751 17.3334 0.666672 13.6025 0.666672 9.00002C0.666672 4.39752 4.39751 0.666687 9 0.666687C13.6025 0.666687 17.3333 4.39752 17.3333 9.00002C17.3333 13.6025 13.6025 17.3334 9 17.3334ZM13.0167 13.23C14.0226 12.2766 14.6562 10.9961 14.8039 9.61802C14.9516 8.23994 14.6038 6.85427 13.8229 5.70928C13.0419 4.56428 11.8787 3.73477 10.5418 3.36934C9.20485 3.00392 7.78148 3.12646 6.52667 3.71502L7.33917 5.17752C7.97328 4.90193 8.666 4.78846 9.35489 4.84735C10.0438 4.90624 10.7072 5.13563 11.2853 5.51485C11.8635 5.89407 12.3381 6.41119 12.6666 7.01961C12.995 7.62803 13.1669 8.30861 13.1667 9.00002H10.6667L13.0167 13.23ZM11.4733 14.285L10.6608 12.8225C10.0267 13.0981 9.33401 13.2116 8.64512 13.1527C7.95623 13.0938 7.29282 12.8644 6.71469 12.4852C6.13656 12.106 5.66188 11.5888 5.33345 10.9804C5.00502 10.372 4.83315 9.69143 4.83334 9.00002H7.33334L4.98334 4.77002C3.97741 5.72347 3.34383 7.00393 3.19611 8.38202C3.04838 9.76011 3.39616 11.1458 4.17714 12.2908C4.95812 13.4358 6.12127 14.2653 7.45821 14.6307C8.79515 14.9961 10.2185 14.8736 11.4733 14.285Z" fill="#02B9B1"/>
</svg>
