<svg width="18" height="18" viewBox="0 0 18 18" fill="none" xmlns="http://www.w3.org/2000/svg">
<path d="M9.00002 0.666656C13.6025 0.666656 17.3334 4.39749 17.3334 8.99999C17.3334 13.6025 13.6025 17.3333 9.00002 17.3333C4.39752 17.3333 0.666687 13.6025 0.666687 8.99999C0.666687 4.39749 4.39752 0.666656 9.00002 0.666656ZM5.66669 9.83332L2.38502 9.83416C2.57068 11.3027 3.23955 12.6677 4.28628 13.7143C5.33302 14.7609 6.69815 15.4295 8.16669 15.615V12.3333C7.50365 12.3333 6.86776 12.0699 6.39892 11.6011C5.93008 11.1322 5.66669 10.4964 5.66669 9.83332ZM15.615 9.83416L12.3334 9.83332C12.3334 10.4964 12.07 11.1322 11.6011 11.6011C11.1323 12.0699 10.4964 12.3333 9.83335 12.3333L9.83419 15.615C11.3026 15.4294 12.6675 14.7606 13.7141 13.7141C14.7607 12.6675 15.4294 11.3025 15.615 9.83416V9.83416ZM9.00002 2.33332C7.37618 2.33335 5.80816 2.92598 4.59023 3.99999C3.3723 5.07401 2.58818 6.55557 2.38502 8.16666H5.66669C5.66669 7.94564 5.75448 7.73368 5.91076 7.5774C6.06705 7.42112 6.27901 7.33332 6.50002 7.33332H11.5C11.721 7.33332 11.933 7.42112 12.0893 7.5774C12.2456 7.73368 12.3334 7.94564 12.3334 8.16666H15.615C15.4119 6.55557 14.6277 5.07401 13.4098 3.99999C12.1919 2.92598 10.6239 2.33335 9.00002 2.33332V2.33332Z" fill="#02B9B1"/>
</svg>
