<svg width="18" height="17" viewBox="0 0 18 17" fill="none" xmlns="http://www.w3.org/2000/svg">
<path d="M4.83335 8.16667C4.3409 8.16667 3.85326 8.06968 3.39829 7.88122C2.94332 7.69277 2.52992 7.41654 2.1817 7.06832C1.83348 6.7201 1.55726 6.30671 1.36881 5.85173C1.18035 5.39676 1.08335 4.90913 1.08335 4.41667C1.08335 3.92421 1.18035 3.43658 1.36881 2.98161C1.55726 2.52664 1.83348 2.11324 2.1817 1.76502C2.52992 1.4168 2.94332 1.14058 3.39829 0.952124C3.85326 0.763668 4.3409 0.666672 4.83335 0.666672C5.82792 0.666672 6.78174 1.06176 7.485 1.76502C8.18826 2.46828 8.58335 3.42211 8.58335 4.41667C8.58335 5.41123 8.18826 6.36506 7.485 7.06832C6.78174 7.77158 5.82792 8.16667 4.83335 8.16667ZM13.5834 11.5C12.6993 11.5 11.8515 11.1488 11.2263 10.5237C10.6012 9.89857 10.25 9.05073 10.25 8.16667C10.25 7.28262 10.6012 6.43477 11.2263 5.80965C11.8515 5.18453 12.6993 4.83334 13.5834 4.83334C14.4674 4.83334 15.3153 5.18453 15.9404 5.80965C16.5655 6.43477 16.9167 7.28262 16.9167 8.16667C16.9167 9.05073 16.5655 9.89857 15.9404 10.5237C15.3153 11.1488 14.4674 11.5 13.5834 11.5ZM13.5834 12.3333C14.5779 12.3333 15.5317 12.7284 16.235 13.4317C16.9383 14.1349 17.3334 15.0888 17.3334 16.0833V16.5H9.83335V16.0833C9.83335 15.0888 10.2284 14.1349 10.9317 13.4317C11.635 12.7284 12.5888 12.3333 13.5834 12.3333ZM4.83335 9C5.38053 9 5.92234 9.10778 6.42787 9.31717C6.93339 9.52657 7.39272 9.83348 7.77963 10.2204C8.16654 10.6073 8.47346 11.0666 8.68285 11.5722C8.89225 12.0777 9.00002 12.6195 9.00002 13.1667V16.5H0.666687V13.1667C0.666687 12.0616 1.10567 11.0018 1.88708 10.2204C2.66848 9.43899 3.72828 9 4.83335 9Z" fill="#14183F"/>
</svg>
