<svg width="12" height="14" viewBox="0 0 12 14" fill="none" xmlns="http://www.w3.org/2000/svg">
<path d="M5.00016 8.16665V12.8333H0.333496C0.333496 11.5956 0.825161 10.4087 1.70033 9.53348C2.5755 8.65831 3.76249 8.16665 5.00016 8.16665ZM5.00016 7.58331C3.06641 7.58331 1.50016 6.01706 1.50016 4.08331C1.50016 2.14956 3.06641 0.583313 5.00016 0.583313C6.93391 0.583313 8.50016 2.14956 8.50016 4.08331C8.50016 6.01706 6.93391 7.58331 5.00016 7.58331ZM6.51391 10.9736C6.43995 10.6624 6.43995 10.3381 6.51391 10.0269L5.93525 9.69265L6.51858 8.68231L7.09725 9.01656C7.32951 8.79658 7.61026 8.63432 7.91683 8.5429V7.87498H9.0835V8.5429C9.39383 8.63506 9.67383 8.79956 9.90308 9.01656L10.4817 8.68231L11.0651 9.69265L10.4864 10.0269C10.5603 10.338 10.5603 10.662 10.4864 10.9731L11.0651 11.3073L10.4817 12.3176L9.90308 11.9834C9.67082 12.2034 9.39006 12.3656 9.0835 12.4571V13.125H7.91683V12.4571C7.61026 12.3656 7.32951 12.2034 7.09725 11.9834L6.51858 12.3176L5.93525 11.3073L6.51391 10.9736ZM8.50016 9.91665C8.34545 9.91665 8.19708 9.9781 8.08768 10.0875C7.97829 10.1969 7.91683 10.3453 7.91683 10.5C7.91683 10.6547 7.97829 10.8031 8.08768 10.9125C8.19708 11.0219 8.34545 11.0833 8.50016 11.0833C8.65487 11.0833 8.80325 11.0219 8.91264 10.9125C9.02204 10.8031 9.0835 10.6547 9.0835 10.5C9.0835 10.3453 9.02204 10.1969 8.91264 10.0875C8.80325 9.9781 8.65487 9.91665 8.50016 9.91665Z" fill="white"/>
</svg>
