<svg width="14" height="19" viewBox="0 0 14 19" fill="none" xmlns="http://www.w3.org/2000/svg">
<path d="M13.6668 18.3333H0.333496V16.6666C0.333496 15.5616 0.772483 14.5018 1.55388 13.7204C2.33529 12.939 3.39509 12.5 4.50016 12.5H9.50016C10.6052 12.5 11.665 12.939 12.4464 13.7204C13.2278 14.5018 13.6668 15.5616 13.6668 16.6666V18.3333ZM7.00016 10.8333C6.34355 10.8333 5.69337 10.704 5.08675 10.4527C4.48012 10.2014 3.92892 9.83314 3.46463 9.36885C3.00034 8.90455 2.63204 8.35336 2.38076 7.74673C2.12949 7.1401 2.00016 6.48992 2.00016 5.83331C2.00016 5.1767 2.12949 4.52652 2.38076 3.9199C2.63204 3.31327 3.00034 2.76207 3.46463 2.29778C3.92892 1.83349 4.48012 1.46519 5.08675 1.21392C5.69337 0.962642 6.34355 0.833313 7.00016 0.833313C8.32624 0.833313 9.59801 1.3601 10.5357 2.29778C11.4734 3.23546 12.0002 4.50723 12.0002 5.83331C12.0002 7.1594 11.4734 8.43116 10.5357 9.36885C9.59801 10.3065 8.32624 10.8333 7.00016 10.8333Z" fill="#02B9B1"/>
</svg>
