<svg width="24" height="24" viewBox="0 0 24 24" fill="none" xmlns="http://www.w3.org/2000/svg">
<path d="M12 0.725464C18.2235 0.725464 23.2745 5.77644 23.2745 12C23.2745 18.2235 18.2235 23.2745 12 23.2745C5.77647 23.2745 0.725494 18.2235 0.725494 12C0.725494 5.77644 5.77647 0.725464 12 0.725464ZM5.26123 15.8513C6.91633 18.3205 9.40123 19.8921 12.1804 19.8921C14.9584 19.8921 17.4445 18.3216 19.0984 15.8513C17.2221 14.0977 14.7487 13.1238 12.1804 13.1274C9.61174 13.1235 7.13789 14.0974 5.26123 15.8513ZM12 10.8725C12.8971 10.8725 13.7574 10.5162 14.3917 9.88186C15.026 9.24754 15.3824 8.38723 15.3824 7.49017C15.3824 6.59311 15.026 5.7328 14.3917 5.09848C13.7574 4.46417 12.8971 4.10782 12 4.10782C11.1029 4.10782 10.2426 4.46417 9.60832 5.09848C8.974 5.7328 8.61765 6.59311 8.61765 7.49017C8.61765 8.38723 8.974 9.24754 9.60832 9.88186C10.2426 10.5162 11.1029 10.8725 12 10.8725Z" fill="white"/>
</svg>
