<svg width="14" height="12" viewBox="0 0 14 12" fill="none" xmlns="http://www.w3.org/2000/svg">
<path d="M0.402496 3.08159C2.26863 1.56978 4.59832 0.746459 7 0.750011C9.49958 0.750011 11.795 1.62326 13.5975 3.08159L12.4979 4.44251C10.9427 3.18282 9.00134 2.49689 7 2.50001C4.9175 2.50001 3.00416 3.22801 1.50208 4.44251L0.402496 3.08159ZM2.23475 5.35076C3.5826 4.25876 5.2653 3.66408 7 3.66668C8.80483 3.66668 10.4627 4.29726 11.7652 5.35018L10.6657 6.71168C9.62878 5.8718 8.33436 5.41451 7 5.41668C5.61166 5.41668 4.3365 5.90201 3.33433 6.71168L2.23475 5.35018V5.35076ZM4.06758 7.61993C4.89699 6.94787 5.93248 6.58183 7 6.58335C8.11066 6.58335 9.13091 6.97126 9.93241 7.61935L8.83283 8.98085C8.31437 8.56095 7.66717 8.33231 7 8.33335C6.33283 8.33231 5.68563 8.56095 5.16716 8.98085L4.06758 7.61935V7.61993ZM5.90041 9.8891C6.21136 9.63693 6.59965 9.49953 7 9.50001C7.4165 9.50001 7.79916 9.64585 8.09958 9.88851L7 11.25L5.90041 9.88851V9.8891Z" fill="#00b717"/>
</svg>