<svg width="20" height="20" viewBox="0 0 20 20" fill="none" xmlns="http://www.w3.org/2000/svg">
<g clip-path="url(#clip0_3_49)">
<path d="M1.66669 4.16666L7.50002 1.66666L12.5 4.16666L17.7525 1.91583C17.8159 1.88865 17.8851 1.87764 17.9538 1.88378C18.0225 1.88993 18.0886 1.91304 18.1462 1.95103C18.2038 1.98903 18.251 2.04073 18.2837 2.1015C18.3163 2.16226 18.3334 2.23018 18.3334 2.29916V15.8333L12.5 18.3333L7.50002 15.8333L2.24752 18.0842C2.18412 18.1113 2.11495 18.1224 2.04624 18.1162C1.97753 18.1101 1.91142 18.087 1.85384 18.049C1.79627 18.011 1.74903 17.9593 1.71636 17.8985C1.68369 17.8377 1.66663 17.7698 1.66669 17.7008V4.16666ZM12.5 16.47V5.98L12.4459 6.00333L7.50002 3.53V14.02L7.55419 13.9967L12.5 16.47Z" fill="#02B9B1"/>
</g>
<defs>
<clipPath id="clip0_3_49">
<rect width="20" height="20" fill="white"/>
</clipPath>
</defs>
</svg>
